<?xml version="1.0" encoding="utf-8"?>
<!-- Generator: Adobe Illustrator 18.1.1, SVG Export Plug-In . SVG Version: 6.00 Build 0)  -->
<svg version="1.1" id="Layer_1" xmlns="http://www.w3.org/2000/svg" xmlns:xlink="http://www.w3.org/1999/xlink" x="0px" y="0px"
	 viewBox="-219 367 172 59" enable-background="new -219 367 172 59" xml:space="preserve">
<path fill="#0D3A5D" d="M-203,385.7v4.1c0.5-0.4,1.4-1,2.5-1.4c0,0,0,0,0,0c1.9-0.7,4.1-0.6,5.9,0.3c0.7,0.3,1.4,0.8,2,1.5
	c1.4,1.4,2.3,3.4,2.3,5.5v3.7c0,2,1.6,3.7,3.7,3.7l0,0c2,0,3.7-1.6,3.7-3.7v-11.5h5.3v23c0,4.5-3.6,8.1-8.1,8.1h-22.6v-5.3h22.7
	c1.5,0,2.7-1.2,2.7-2.7c0-1.4,0.1-2.9,0.1-4.3c-0.5,0.3-1.1,0.7-1.8,1c-0.1,0-0.2,0.1-0.3,0.1c-2.7,1.1-5.9,0.7-8.1-1.3
	c-0.1-0.1-0.2-0.2-0.3-0.3c-1.4-1.4-2.3-3.4-2.3-5.5v-3.8c0-2.1-1.7-3.7-3.7-3.7l0,0c-2.1,0-3.7,1.7-3.7,3.7v11.6h-5.3v-22.4
	c0-4.8,3.9-8.8,8.8-8.8h22v5.3H-200C-201.7,382.6-203,384-203,385.7z"/>
<g>
	<path fill="#0D3A5D" d="M-160.1,408.7h-4v-8.9l-7.2-12.1h4.6l5,8.7l4.8-8.7h3.6l-6.8,12.1V408.7z"/>
	<path fill="#0D3A5D" d="M-136.6,408.7h-4l-1.7-5h-8.1l-1.6,5h-3.2l7-21h4.7L-136.6,408.7z M-143.4,400.7l-3.1-9.4l-3.1,9.4H-143.4z
		"/>
	<path fill="#0D3A5D" d="M-117.7,408.7h-4l-3.3-8.6h-5.3v8.6h-3.8v-21h9.1c2.5,0,4.4,0.6,5.6,1.7c1.2,1.1,1.8,2.6,1.8,4.4
		c0,2.7-1.3,4.6-3.8,5.6L-117.7,408.7z M-130.3,397h4.7c1.4,0,2.4-0.3,3-0.9c0.7-0.6,1-1.4,1-2.4c0-0.9-0.3-1.7-1-2.2
		s-1.6-0.9-2.8-0.9h-5V397z"/>
	<path fill="#0D3A5D" d="M-98,408.7h-3.7l-8-13.4c-0.1-0.2-0.3-0.5-0.6-1c-0.1-0.2-0.3-0.5-0.6-1v15.4h-3v-21h4.2l7.4,12.4
		c0.1,0.1,0.5,0.9,1.3,2.3v-14.6h3V408.7z"/>
	<path fill="#0D3A5D" d="M-89.5,408.7h-3.9v-21h13.3v3.2h-9.4v5.7h7.4v3.2h-7.4V408.7z"/>
	<path fill="#0D3A5D" d="M-73.6,408.7h-3.8v-21h3.8V408.7z"/>
	<path fill="#0D3A5D" d="M-61.6,408.7h-4.1V391h-5.6v-3.2H-56v3.2h-5.6V408.7z"/>
</g>
</svg>
