<svg preserveAspectRatio="none" width="100%" height="100%" overflow="visible" style="display: block;" viewBox="0 0 28.4992 34.5002" fill="none" xmlns="http://www.w3.org/2000/svg">
<g id="Group">
<path id="Vector" fill-rule="evenodd" clip-rule="evenodd" d="M1.19466 6.0675C1.69566 2.697 4.38666 0 7.79916 0C9.84366 0 11.6497 0.984 12.8602 2.49C12.9538 2.6065 13.0235 2.74035 13.0653 2.88385C13.1071 3.02735 13.1201 3.1777 13.1037 3.32625C13.0872 3.47481 13.0416 3.61866 12.9695 3.74955C12.8973 3.88044 12.8 3.9958 12.6832 4.089C12.4474 4.27805 12.1462 4.36576 11.8458 4.33286C11.5454 4.29995 11.2704 4.14911 11.0812 3.9135C10.2562 2.8875 9.08016 2.274 7.79916 2.274C5.78466 2.274 3.96966 3.8385 3.50466 6.075C3.71163 6.10058 3.90755 6.18266 4.07095 6.31225C4.23435 6.44183 4.35891 6.61391 4.43096 6.80961C4.50301 7.00531 4.51977 7.21708 4.47941 7.42168C4.43905 7.62628 4.34313 7.81582 4.20216 7.9695L3.09216 9.1845C2.98534 9.30137 2.85535 9.39472 2.71047 9.45858C2.56559 9.52244 2.40899 9.55542 2.25066 9.55542C2.09232 9.55542 1.93573 9.52244 1.79084 9.45858C1.64596 9.39472 1.51597 9.30137 1.40916 9.1845L0.299156 7.9695C0.146626 7.80341 0.0470051 7.59565 0.0129916 7.37273C-0.021022 7.1498 0.0121122 6.92179 0.108171 6.71777C0.20423 6.51375 0.358863 6.34294 0.55236 6.22713C0.745858 6.11132 0.969456 6.05575 1.19466 6.0675ZM13.7107 4.8525C13.869 4.85245 14.0255 4.88536 14.1704 4.94915C14.3153 5.01294 14.4453 5.1062 14.5522 5.223L15.6622 6.4365C15.8152 6.60253 15.9153 6.81043 15.9496 7.03362C15.9839 7.25681 15.9509 7.48516 15.8547 7.68949C15.7586 7.89382 15.6037 8.06485 15.4099 8.18073C15.2161 8.2966 14.9921 8.35205 14.7667 8.34C14.2672 11.709 11.5762 14.406 8.16216 14.406C6.26016 14.406 4.56216 13.554 3.36216 12.222C3.26217 12.1112 3.18502 11.9817 3.13512 11.841C3.08522 11.7003 3.06355 11.5512 3.07135 11.4021C3.07915 11.253 3.11627 11.1069 3.18059 10.9722C3.2449 10.8375 3.33514 10.7168 3.44616 10.617C3.55741 10.5167 3.68735 10.4392 3.82855 10.3891C3.96976 10.339 4.11945 10.3173 4.26907 10.3251C4.41869 10.3329 4.56531 10.3701 4.70053 10.4346C4.83576 10.4991 4.95694 10.5896 5.05716 10.701C5.86716 11.601 6.96816 12.132 8.16216 12.132C10.1767 12.132 11.9917 10.569 12.4567 8.331C12.2497 8.30542 12.0538 8.22334 11.8904 8.09375C11.727 7.96417 11.6024 7.79209 11.5304 7.59639C11.4583 7.40068 11.4415 7.18892 11.4819 6.98432C11.5223 6.77972 11.6182 6.59018 11.7592 6.4365L12.8692 5.223C12.976 5.1062 13.106 5.01294 13.2509 4.94915C13.3958 4.88536 13.5524 4.85245 13.7107 4.8525Z" fill="var(--fill-0, #11F259)"/>
<path id="Vector_2" fill-rule="evenodd" clip-rule="evenodd" d="M28.4992 16.3022V22.3682C28.4992 28.0877 28.4992 30.9482 26.7187 32.7242C24.9382 34.5002 22.0717 34.5002 16.3387 34.5002C10.6057 34.5002 7.74069 34.5002 5.95869 32.7242C4.17969 30.9467 4.17969 28.0877 4.17969 22.3682V19.7702C4.17969 19.3667 4.17969 19.1657 4.21719 18.9992C4.28098 18.7206 4.4223 18.4657 4.62482 18.264C4.82734 18.0622 5.0828 17.9219 5.36169 17.8592C5.52669 17.8202 5.73069 17.8202 6.13419 17.8202C8.55519 17.8202 9.76419 17.8202 10.7647 17.5937C12.4388 17.215 13.9717 16.3708 15.1867 15.1584C16.4017 13.9461 17.2493 12.415 17.6317 10.7417C17.8597 9.74423 17.8597 8.53823 17.8597 6.12623C17.8597 5.72723 17.8597 5.52623 17.8987 5.35823C17.9656 5.07653 18.111 4.81959 18.3181 4.61726C18.5252 4.41493 18.7855 4.27552 19.0687 4.21523C19.2367 4.17923 19.4317 4.18373 19.8187 4.19123C23.3167 4.26173 25.3417 4.57373 26.7187 5.94623C28.4992 7.72523 28.4992 10.5842 28.4992 16.3037M11.7787 28.8137C11.6233 28.8039 11.4675 28.8261 11.3209 28.8789C11.1744 28.9316 11.0402 29.0138 10.9267 29.1205C10.8132 29.2271 10.7227 29.3558 10.6609 29.4987C10.599 29.6417 10.5671 29.7957 10.5671 29.9515C10.5671 30.1072 10.599 30.2613 10.6609 30.4042C10.7227 30.5472 10.8132 30.6759 10.9267 30.7825C11.0402 30.8891 11.1744 30.9713 11.3209 31.0241C11.4675 31.0768 11.6233 31.099 11.7787 31.0892H20.8987C21.0529 31.0972 21.2071 31.0736 21.352 31.0201C21.4968 30.9665 21.6293 30.884 21.7412 30.7777C21.8532 30.6713 21.9423 30.5433 22.0033 30.4014C22.0642 30.2595 22.0956 30.1067 22.0956 29.9522C22.0956 29.7978 22.0642 29.645 22.0033 29.5031C21.9423 29.3612 21.8532 29.2332 21.7412 29.1268C21.6293 29.0204 21.4968 28.938 21.352 28.8844C21.2071 28.8308 21.0529 28.8073 20.8987 28.8152L11.7787 28.8137Z" fill="var(--fill-0, #11F259)"/>
</g>
</svg>
