<svg preserveAspectRatio="none" width="100%" height="100%" overflow="visible" style="display: block;" viewBox="0 0 36 36" fill="none" xmlns="http://www.w3.org/2000/svg">
<g id="material-symbols:add-circle-rounded">
<path id="Vector" d="M16.5 19.5V24C16.5 24.425 16.644 24.7815 16.932 25.0695C17.22 25.3575 17.576 25.501 18 25.5C18.424 25.499 18.7805 25.355 19.0695 25.068C19.3585 24.781 19.502 24.425 19.5 24V19.5H24C24.425 19.5 24.7815 19.356 25.0695 19.068C25.3575 18.78 25.501 18.424 25.5 18C25.499 17.576 25.355 17.22 25.068 16.932C24.781 16.644 24.425 16.5 24 16.5H19.5V12C19.5 11.575 19.356 11.219 19.068 10.932C18.78 10.645 18.424 10.501 18 10.5C17.576 10.499 17.22 10.643 16.932 10.932C16.644 11.221 16.5 11.577 16.5 12V16.5H12C11.575 16.5 11.219 16.644 10.932 16.932C10.645 17.22 10.501 17.576 10.5 18C10.499 18.424 10.643 18.7805 10.932 19.0695C11.221 19.3585 11.577 19.502 12 19.5H16.5ZM18 33C15.925 33 13.975 32.606 12.15 31.818C10.325 31.03 8.7375 29.9615 7.3875 28.6125C6.0375 27.2635 4.969 25.676 4.182 23.85C3.395 22.024 3.001 20.074 3 18C2.999 15.926 3.393 13.976 4.182 12.15C4.971 10.324 6.0395 8.7365 7.3875 7.3875C8.7355 6.0385 10.323 4.97 12.15 4.182C13.977 3.394 15.927 3 18 3C20.073 3 22.023 3.394 23.85 4.182C25.677 4.97 27.2645 6.0385 28.6125 7.3875C29.9605 8.7365 31.0295 10.324 31.8195 12.15C32.6095 13.976 33.003 15.926 33 18C32.997 20.074 32.603 22.024 31.818 23.85C31.033 25.676 29.9645 27.2635 28.6125 28.6125C27.2605 29.9615 25.673 31.0305 23.85 31.8195C22.027 32.6085 20.077 33.002 18 33Z" fill="var(--fill-0, #11F259)"/>
</g>
</svg>
