<svg preserveAspectRatio="none" width="100%" height="100%" overflow="visible" style="display: block;" viewBox="0 0 36 36" fill="none" xmlns="http://www.w3.org/2000/svg">
<g id="material-symbols:ad-group-off">
<path id="Vector" d="M30.7469 34.95L22.7969 27H11.9969C11.1719 27 10.4659 26.7065 9.87888 26.1195C9.29188 25.5325 8.99788 24.826 8.99688 24V13.2L1.04688 5.25L3.14687 3.15L32.8469 32.85L30.7469 34.95ZM5.99687 33C5.17187 33 4.46588 32.7065 3.87888 32.1195C3.29188 31.5325 2.99787 30.826 2.99687 30V9H5.99687V30H26.9969V33H5.99687ZM31.0469 26.8125L13.2344 9H29.9969V6H11.9969V7.7625L9.18438 4.95C9.38438 4.35 9.74088 3.875 10.2539 3.525C10.7669 3.175 11.3479 3 11.9969 3H29.9969C30.8219 3 31.5284 3.294 32.1164 3.882C32.7044 4.47 32.9979 5.176 32.9969 6V24C32.9969 24.65 32.8219 25.2315 32.4719 25.7445C32.1219 26.2575 31.6469 26.6135 31.0469 26.8125Z" fill="var(--fill-0, #FF0000)"/>
</g>
</svg>
