<svg preserveAspectRatio="none" width="100%" height="100%" overflow="visible" style="display: block;" viewBox="0 0 36 36" fill="none" xmlns="http://www.w3.org/2000/svg">
<g id="si:check-circle-fill">
<path id="Vector" fill-rule="evenodd" clip-rule="evenodd" d="M33 18C33 26.2845 26.2845 33 18 33C9.7155 33 3 26.2845 3 18C3 9.7155 9.7155 3 18 3C26.2845 3 33 9.7155 33 18ZM25.221 14.3715C25.3354 14.2112 25.4172 14.0298 25.4616 13.8379C25.5059 13.646 25.5121 13.4472 25.4796 13.2529C25.4472 13.0586 25.3768 12.8725 25.2724 12.7055C25.1681 12.5384 25.0318 12.3934 24.8715 12.279C24.7112 12.1646 24.5298 12.0828 24.3379 12.0384C24.146 11.9941 23.9472 11.9879 23.7529 12.0204C23.5586 12.0528 23.3725 12.1232 23.2055 12.2276C23.0384 12.3319 22.8934 12.4682 22.779 12.6285L16.308 21.6885L13.0605 18.4395C12.7776 18.1663 12.3987 18.0151 12.0054 18.0185C11.6121 18.0219 11.2359 18.1797 10.9578 18.4578C10.6797 18.7359 10.5219 19.1121 10.5185 19.5054C10.5151 19.8987 10.6663 20.2776 10.9395 20.5605L15.4395 25.0605C15.5935 25.2143 15.7792 25.3327 15.9836 25.4076C16.1881 25.4824 16.4063 25.5119 16.6233 25.4939C16.8402 25.4759 17.0506 25.4109 17.2399 25.3034C17.4292 25.196 17.5929 25.0486 17.7195 24.8715L25.221 14.3715Z" fill="var(--fill-0, #FF0000)"/>
</g>
</svg>
