<svg preserveAspectRatio="none" width="100%" height="100%" overflow="visible" style="display: block;" viewBox="0 0 36 36" fill="none" xmlns="http://www.w3.org/2000/svg">
<g id="si:close-circle-fill">
<path id="Vector" fill-rule="evenodd" clip-rule="evenodd" d="M33 18C33 26.2845 26.2845 33 18 33C9.7155 33 3 26.2845 3 18C3 9.7155 9.7155 3 18 3C26.2845 3 33 9.7155 33 18ZM25.425 10.575C25.7062 10.8563 25.8642 11.2378 25.8642 11.6355C25.8642 12.0332 25.7062 12.4147 25.425 12.696L20.121 18L25.425 23.304C25.6982 23.5869 25.8494 23.9658 25.846 24.3591C25.8426 24.7524 25.6848 25.1286 25.4067 25.4067C25.1286 25.6848 24.7524 25.8426 24.3591 25.846C23.9658 25.8494 23.5869 25.6982 23.304 25.425L18 20.121L12.696 25.425C12.5576 25.5683 12.3921 25.6825 12.2091 25.7612C12.0261 25.8398 11.8293 25.8811 11.6301 25.8829C11.4309 25.8846 11.2334 25.8467 11.0491 25.7712C10.8647 25.6958 10.6972 25.5844 10.5564 25.4436C10.4156 25.3028 10.3042 25.1353 10.2288 24.9509C10.1533 24.7666 10.1154 24.5691 10.1171 24.3699C10.1189 24.1707 10.1602 23.9739 10.2388 23.7909C10.3175 23.6079 10.4317 23.4424 10.575 23.304L15.879 18L10.575 12.696C10.4317 12.5576 10.3175 12.3921 10.2388 12.2091C10.1602 12.0261 10.1189 11.8293 10.1171 11.6301C10.1154 11.4309 10.1533 11.2334 10.2288 11.0491C10.3042 10.8647 10.4156 10.6972 10.5564 10.5564C10.6972 10.4156 10.8647 10.3042 11.0491 10.2288C11.2334 10.1533 11.4309 10.1154 11.6301 10.1171C11.8293 10.1189 12.0261 10.1602 12.2091 10.2388C12.3921 10.3175 12.5576 10.4317 12.696 10.575L18 15.879L23.304 10.575C23.5853 10.2938 23.9668 10.1358 24.3645 10.1358C24.7622 10.1358 25.1437 10.2938 25.425 10.575Z" fill="var(--fill-0, #FF0000)"/>
</g>
</svg>
