<svg preserveAspectRatio="none" width="100%" height="100%" overflow="visible" style="display: block;" viewBox="0 0 36 36" fill="none" xmlns="http://www.w3.org/2000/svg">
<g id="streamline:investment-selection-remix" clip-path="url(#clip0_0_4)">
<path id="Vector" fill-rule="evenodd" clip-rule="evenodd" d="M7.1426 0.643066C7.65408 0.643066 8.14462 0.846255 8.5063 1.20793C8.86798 1.56961 9.07117 2.06015 9.07117 2.57164V4.12992C10.0346 4.27158 10.9412 4.67359 11.6929 5.2926C12.4447 5.91161 13.0132 6.72412 13.3372 7.64249C13.498 8.12226 13.4639 8.64603 13.2421 9.10085C13.0203 9.55568 12.6286 9.90511 12.1516 10.0738C11.6745 10.2425 11.1502 10.2169 10.6919 10.0026C10.2335 9.78833 9.87766 9.40245 9.70117 8.92821C9.59891 8.63499 9.40767 8.38101 9.15413 8.20169C8.9006 8.02237 8.59742 7.92667 8.28688 7.92792H5.6306C5.35124 7.92746 5.08159 8.03036 4.87357 8.21681C4.66554 8.40326 4.53385 8.66007 4.50384 8.93781C4.47383 9.21555 4.54763 9.49457 4.71103 9.72115C4.87443 9.94773 5.11588 10.1058 5.38888 10.1651L9.4286 11.0496C10.6528 11.3181 11.7442 12.0071 12.513 12.9969C13.2818 13.9867 13.6794 15.2146 13.6366 16.4672C13.5938 17.7197 13.1133 18.9176 12.2787 19.8526C11.4442 20.7876 10.3083 21.4005 9.0686 21.5848V23.1431C9.0686 23.6546 8.86541 24.1451 8.50373 24.5068C8.14205 24.8684 7.65151 25.0716 7.14002 25.0716C6.62853 25.0716 6.138 24.8684 5.77632 24.5068C5.41464 24.1451 5.21145 23.6546 5.21145 23.1431V21.5848C4.24989 21.4396 3.34575 21.0362 2.59539 20.4176C1.84502 19.799 1.27657 18.9884 0.950595 18.0722C0.861335 17.8324 0.820705 17.5771 0.831073 17.3214C0.841442 17.0657 0.902602 16.8146 1.01099 16.5828C1.11938 16.3509 1.27282 16.143 1.46238 15.9711C1.65195 15.7991 1.87384 15.6666 2.11512 15.5813C2.3564 15.496 2.61225 15.4596 2.86776 15.4741C3.12327 15.4887 3.37332 15.5539 3.60335 15.6661C3.83338 15.7783 4.03879 15.9351 4.2076 16.1275C4.37641 16.3198 4.50524 16.5438 4.5866 16.7865C4.79231 17.3702 5.35288 17.7868 6.00088 17.7868H8.28688C8.65623 17.7855 9.01214 17.6481 9.28657 17.4009C9.56101 17.1537 9.73471 16.814 9.77449 16.4468C9.81426 16.0796 9.71732 15.7106 9.50218 15.4104C9.28705 15.1101 8.96881 14.8997 8.60831 14.8194L4.5686 13.9348C3.40078 13.6807 2.363 13.0158 1.64409 12.061C0.925176 11.1063 0.572913 9.92521 0.6514 8.73265C0.729886 7.5401 1.2339 6.41535 2.07174 5.56307C2.90958 4.71079 4.02555 4.18763 5.2166 4.08878V2.57164C5.2166 2.06015 5.41978 1.56961 5.78146 1.20793C6.14314 0.846255 6.63111 0.643066 7.1426 0.643066ZM19.6089 14.7859C19.6089 14.3597 19.7782 13.9509 20.0796 13.6495C20.381 13.3481 20.7898 13.1788 21.216 13.1788C21.6423 13.1788 22.051 13.3481 22.3524 13.6495C22.6538 13.9509 22.8232 14.3597 22.8232 14.7859V21.8574C22.8232 22.7445 23.5432 23.4645 24.4303 23.4645H26.814C29.5809 23.4645 31.8232 25.7068 31.8232 28.4736V33.4288C31.8232 33.855 31.9925 34.2638 32.2939 34.5652C32.5953 34.8666 33.0041 35.0359 33.4303 35.0359C33.8565 35.0359 34.2653 34.8666 34.5667 34.5652C34.8681 34.2638 35.0375 33.855 35.0375 33.4288V28.4736C35.0361 26.2931 34.1693 24.2022 32.6274 22.6603C31.0855 21.1184 28.9946 20.2516 26.814 20.2502H26.0375V14.7859C26.0375 13.5072 25.5295 12.2809 24.6253 11.3767C23.7211 10.4725 22.4947 9.96449 21.216 9.96449C19.9373 9.96449 18.711 10.4725 17.8068 11.3767C16.9026 12.2809 16.3946 13.5072 16.3946 14.7859V23.1945C12.6917 24.6319 11.28 29.4174 13.9775 32.6522L15.4817 34.4574C15.6149 34.6252 15.7804 34.7648 15.9683 34.8678C16.1562 34.9708 16.3628 35.0351 16.576 35.0571C16.7892 35.0791 17.0046 35.0582 17.2096 34.9956C17.4146 34.9331 17.605 34.8302 17.7696 34.6931C17.9342 34.5559 18.0697 34.3871 18.1682 34.1968C18.2667 34.0064 18.3261 33.7983 18.3429 33.5847C18.3597 33.3711 18.3337 33.1562 18.2663 32.9528C18.1988 32.7494 18.0914 32.5615 17.9503 32.4002L16.446 30.5951C16.1301 30.2159 15.9199 29.76 15.8367 29.2734C15.7535 28.7869 15.8002 28.2871 15.9722 27.8245C16.1442 27.3618 16.4352 26.9528 16.816 26.6387C17.1967 26.3247 17.6537 26.1167 18.1406 26.0359L18.2666 26.0128C18.6415 25.9501 18.9821 25.7566 19.2279 25.4666C19.4736 25.1766 19.6086 24.8089 19.6089 24.4288V14.7859Z" fill="var(--fill-0, #11F259)"/>
</g>
<defs>
<clipPath id="clip0_0_4">
<rect width="36" height="36" fill="white"/>
</clipPath>
</defs>
</svg>
