<svg preserveAspectRatio="none" width="100%" height="100%" overflow="visible" style="display: block;" viewBox="0 0 60 60" fill="none" xmlns="http://www.w3.org/2000/svg">
<g id="ph:tree-fill">
<path id="Vector" d="M30 44.0273C30.6012 44.428 31.2275 44.7897 31.875 45.1102V54.375C31.875 54.8723 31.6775 55.3492 31.3258 55.7008C30.9742 56.0525 30.4973 56.25 30 56.25C29.5027 56.25 29.0258 56.0525 28.6742 55.7008C28.3225 55.3492 28.125 54.8723 28.125 54.375V45.1102C28.7725 44.7897 29.3988 44.428 30 44.0273ZM46.4297 14.6695C45.0733 11.431 42.7901 8.66563 39.867 6.72073C36.9438 4.77584 33.5111 3.7382 30 3.7382C26.4889 3.7382 23.0562 4.77584 20.133 6.72073C17.2099 8.66563 14.9267 11.431 13.5703 14.6695C10.6411 16.0084 8.15827 18.1606 6.41728 20.8702C4.67628 23.5797 3.75046 26.7325 3.75 29.9531C3.72656 38.9063 11.25 46.6406 20.1891 46.875C22.9385 46.9403 25.6624 46.3346 28.125 45.1102V36.7828L17.9109 31.6781C17.4659 31.4556 17.1274 31.0654 16.9701 30.5933C16.8127 30.1212 16.8493 29.606 17.0719 29.1609C17.2944 28.7159 17.6846 28.3774 18.1567 28.2201C18.6288 28.0627 19.144 28.0993 19.5891 28.3219L28.125 32.5922V20.625C28.125 20.1277 28.3225 19.6508 28.6742 19.2992C29.0258 18.9475 29.5027 18.75 30 18.75C30.4973 18.75 30.9742 18.9475 31.3258 19.2992C31.6775 19.6508 31.875 20.1277 31.875 20.625V26.9672L40.4109 22.6969C40.6313 22.5867 40.8712 22.521 41.117 22.5035C41.3628 22.4861 41.6096 22.5172 41.8433 22.5951C42.077 22.673 42.2932 22.7962 42.4793 22.9576C42.6654 23.119 42.8179 23.3156 42.9281 23.5359C43.0383 23.7563 43.104 23.9962 43.1215 24.242C43.1389 24.4878 43.1078 24.7346 43.0299 24.9683C42.952 25.202 42.8288 25.4182 42.6674 25.6043C42.5059 25.7904 42.3094 25.9429 42.0891 26.0531L31.875 31.1578V45.1102C34.206 46.2673 36.7726 46.8713 39.375 46.875H39.8016C48.75 46.6406 56.2758 38.9063 56.25 29.9531C56.2495 26.7325 55.3237 23.5797 53.5827 20.8702C51.8417 18.1606 49.3589 16.0084 46.4297 14.6695Z" fill="var(--fill-0, #F9F6F6)"/>
</g>
</svg>
