<svg preserveAspectRatio="none" width="100%" height="100%" overflow="visible" style="display: block;" viewBox="0 0 60 60" fill="none" xmlns="http://www.w3.org/2000/svg">
<g id="pixel:box-usd-solid">
<path id="Vector" d="M2.5 22.5V55H5V57.5H55V55H57.5V22.5H2.5ZM32.5 50V55H27.5V50H22.5V45H32.5V42.5H25V40H22.5V30H27.5V25H32.5V30H37.5V35H27.5V37.5H35V40H37.5V50H32.5ZM27.5 2.5V17.5H2.5V15H5V10H7.5V7.5H10V5H12.5V2.5H27.5ZM57.5 15V17.5H32.5V2.5H47.5V5H50V7.5H52.5V10H55V15H57.5Z" fill="var(--fill-0, #F9F6F6)"/>
</g>
</svg>
