<svg preserveAspectRatio="none" width="100%" height="100%" overflow="visible" style="display: block;" viewBox="0 0 54 54" fill="none" xmlns="http://www.w3.org/2000/svg">
<g id="emojione-v1:delivery-truck">
<path id="Vector" d="M47.6719 7.82578H25.4154C22.2615 7.82578 19.7041 11.1316 19.7041 15.2086V22.2159L18.3566 22.6117L17.3686 29.6038L18.0512 36.6618L25.0948 36.6187C25.2053 36.6289 25.3049 36.6618 25.4146 36.6618H47.671C50.8275 36.6618 53.3841 33.3577 53.3841 29.279V15.2094C53.3857 11.1324 50.8275 7.82578 47.6719 7.82578Z" fill="var(--fill-0, #F48020)"/>
<path id="Vector_2" d="M47.6719 7.84013H25.4154C22.2615 7.84013 19.7041 11.1451 19.7041 15.2229V22.2311L18.3566 22.6268L17.3686 29.6182L17.8428 34.5305L18.3566 30.9049L19.7041 30.5092V23.5018C19.7041 19.4248 22.2607 16.119 25.4154 16.119H47.6719C50.8283 16.119 53.3849 19.4257 53.3849 23.5018V15.2221C53.3849 11.1451 50.8283 7.84013 47.6719 7.84013Z" fill="var(--fill-0, #F9A425)"/>
<g id="Group">
<path id="Vector_3" d="M16.6767 16.1241H12.1441C8.35734 16.3713 0.826031 18.1069 0.970312 27.9956V31.6356C0.970312 34.7498 2.32537 37.2735 3.99347 37.2735H16.675C18.3448 37.2735 19.7007 34.7507 19.7007 31.6356V21.7603C19.7007 18.6469 18.3457 16.1215 16.675 16.1215" fill="var(--fill-0, #E3E4E3)"/>
<path id="Vector_4" d="M17.8875 12.6453H15.1706C12.9052 12.7752 8.39531 13.6763 8.48137 18.8122V20.6997C8.48137 22.318 9.29559 23.6284 10.2921 23.6284H17.8858C18.884 23.6284 19.6965 22.318 19.6965 20.6997V15.5756C19.6982 13.9573 18.8848 12.6453 17.8867 12.6453" fill="var(--fill-0, #E3E4E3)"/>
</g>
<path id="Vector_5" d="M10.8962 18.8738H8.62313C6.72553 19.0156 2.94891 20.0087 3.02231 25.666V27.7484C3.02231 29.5312 3.69984 30.9766 4.53769 30.9766H10.8962C11.734 30.9766 12.4149 29.5312 12.4149 27.7484V22.0995C12.4149 20.3183 11.734 18.8747 10.8962 18.8747" fill="var(--fill-0, #A2C2CA)"/>
<path id="Vector_6" d="M7.6275 25.9478C7.51697 23.5634 7.67981 21.1115 8.38266 18.8654C6.47325 19.0173 2.74472 20.0323 2.81644 25.6576V27.74C2.81644 29.5228 3.49566 30.9682 4.3335 30.9682H8.46534C7.97766 29.4587 7.71272 27.7889 7.6275 25.9512" fill="var(--fill-0, #83AFB7)"/>
<path id="Vector_7" d="M17.9634 38.7627C17.9621 40.3149 17.3446 41.803 16.2466 42.9C15.1486 43.997 13.6599 44.6133 12.1078 44.6133C10.5566 44.6119 9.06922 43.9951 7.97232 42.8982C6.87542 41.8013 6.25859 40.314 6.25725 38.7627C6.25814 37.2112 6.87477 35.7234 7.97172 34.6261C9.06868 33.5289 10.5563 32.9118 12.1078 32.9105C13.6602 32.9105 15.1491 33.5269 16.2472 34.6243C17.3452 35.7218 17.9625 37.2103 17.9634 38.7627Z" fill="var(--fill-0, white)"/>
<path id="Vector_8" d="M16.9256 38.7627C16.9241 40.0392 16.416 41.2628 15.513 42.165C14.6101 43.0672 13.3859 43.5742 12.1095 43.5746C10.8338 43.5731 9.61076 43.0656 8.70869 42.1635C7.80663 41.2615 7.29916 40.0384 7.29759 38.7627C7.31435 37.497 7.82892 36.2888 8.7299 35.3997C9.63088 34.5105 10.8458 34.012 12.1116 34.012C13.3774 34.012 14.5923 34.5105 15.4933 35.3997C16.3943 36.2888 16.9089 37.497 16.9256 38.7627Z" fill="var(--fill-0, #243438)"/>
<path id="Vector_9" d="M15.2297 38.6952C15.2297 39.5229 14.9009 40.3166 14.3157 40.9018C13.7305 41.487 12.9367 41.8158 12.1091 41.8158C11.2814 41.8158 10.4877 41.487 9.90247 40.9018C9.31725 40.3166 8.98847 39.5229 8.98847 38.6952C9.0116 37.883 9.35053 37.1117 9.93323 36.5454C10.5159 35.9791 11.2965 35.6622 12.1091 35.6622C12.9217 35.6622 13.7022 35.9791 14.2849 36.5454C14.8676 37.1117 15.2066 37.883 15.2297 38.6952Z" fill="var(--fill-0, #969796)"/>
<path id="Vector_10" d="M42.0491 39.5196C42.0491 40.1888 41.9173 40.8515 41.6612 41.4698C41.4051 42.0881 41.0297 42.6499 40.5565 43.1232C40.0832 43.5964 39.5214 43.9718 38.9031 44.2279C38.2848 44.484 37.6221 44.6158 36.9529 44.6158C35.6015 44.6149 34.3058 44.0777 33.3503 43.1222C32.3947 42.1666 31.8575 40.8709 31.8566 39.5196C31.8566 38.168 32.3935 36.8717 33.3493 35.916C34.305 34.9602 35.6013 34.4233 36.9529 34.4233C37.6221 34.4233 38.2848 34.5551 38.9031 34.8112C39.5214 35.0674 40.0832 35.4427 40.5565 35.916C41.0297 36.3892 41.4051 36.951 41.6612 37.5693C41.9173 38.1876 42.0491 38.8503 42.0491 39.5196Z" fill="var(--fill-0, white)"/>
<path id="Vector_11" d="M41.1463 39.5196C41.1463 40.6306 40.705 41.6962 39.9193 42.4818C39.1337 43.2674 38.0681 43.7088 36.9571 43.7088C35.846 43.7088 34.7805 43.2674 33.9949 42.4818C33.2092 41.6962 32.7679 40.6306 32.7679 39.5196C32.7673 38.9696 32.8752 38.425 33.0852 37.9167C33.2953 37.4085 33.6035 36.9467 33.9921 36.5576C34.3808 36.1685 34.8423 35.8599 35.3504 35.6493C35.8584 35.4387 36.4029 35.3303 36.9529 35.3303C37.5034 35.3297 38.0487 35.4375 38.5574 35.6478C39.0662 35.858 39.5286 36.1665 39.9181 36.5556C40.3075 36.9447 40.6165 37.4067 40.8273 37.9153C41.038 38.4239 41.1464 38.969 41.1463 39.5196Z" fill="var(--fill-0, #243438)"/>
<path id="Vector_12" d="M39.6731 39.463C39.6732 39.82 39.603 40.1735 39.4664 40.5034C39.3298 40.8332 39.1295 41.1329 38.8771 41.3853C38.6246 41.6377 38.3249 41.8379 37.995 41.9743C37.6651 42.1108 37.3116 42.181 36.9546 42.1808C36.4176 42.1802 35.8928 42.0206 35.4465 41.7219C35.0002 41.4232 34.6525 40.999 34.4472 40.5027C34.242 40.0065 34.1885 39.4606 34.2934 38.9339C34.3984 38.4073 34.6571 37.9236 35.0369 37.5439C35.4166 37.1642 35.9004 36.9057 36.4271 36.8009C36.9538 36.6961 37.4997 36.7498 37.9959 36.9552C38.4921 37.1606 38.9162 37.5084 39.2147 37.9548C39.5133 38.4012 39.6728 38.926 39.6731 39.463Z" fill="var(--fill-0, #969796)"/>
<path id="Vector_13" d="M52.4728 39.463C52.4723 40.1317 52.34 40.7938 52.0836 41.4113C51.8272 42.0289 51.4516 42.59 50.9784 43.0624C50.5052 43.5349 49.9435 43.9095 49.3255 44.1648C48.7075 44.4202 48.0453 44.5514 47.3766 44.5508C46.7079 44.5503 46.0458 44.418 45.4282 44.1616C44.8107 43.9052 44.2496 43.5297 43.7772 43.0564C43.3047 42.5832 42.9301 42.0216 42.6747 41.4035C42.4194 40.7855 42.2882 40.1233 42.2887 39.4546C42.2899 38.1041 42.8274 36.8094 43.7832 35.8552C44.7389 34.9011 46.0345 34.3657 47.385 34.3668C48.7355 34.3679 50.0302 34.9055 50.9844 35.8612C51.9385 36.8169 52.4739 38.1125 52.4728 39.463Z" fill="var(--fill-0, white)"/>
<path id="Vector_14" d="M51.57 39.463C51.5689 40.5745 51.1266 41.64 50.3403 42.4255C49.554 43.211 48.488 43.6523 47.3766 43.6523C46.2655 43.6523 45.2 43.2109 44.4143 42.4253C43.6287 41.6396 43.1873 40.5741 43.1873 39.463C43.1873 38.352 43.6287 37.2864 44.4143 36.5008C45.2 35.7152 46.2655 35.2738 47.3766 35.2738C47.927 35.2735 48.4721 35.3816 48.9807 35.5919C49.4894 35.8023 49.9516 36.1108 50.341 36.4998C50.7304 36.8888 51.0394 37.3507 51.2503 37.8592C51.4611 38.3676 51.5698 38.9126 51.57 39.463Z" fill="var(--fill-0, #243438)"/>
<path id="Vector_15" d="M50.0934 39.4057C50.0998 39.7664 50.0342 40.1248 49.9006 40.46C49.7669 40.7951 49.5678 41.1003 49.315 41.3577C49.0621 41.615 48.7605 41.8194 48.4277 41.959C48.095 42.0985 47.7378 42.1704 47.377 42.1704C47.0162 42.1704 46.659 42.0985 46.3262 41.959C45.9935 41.8194 45.6919 41.615 45.439 41.3577C45.1861 41.1003 44.9871 40.7951 44.8534 40.46C44.7197 40.1248 44.6542 39.7664 44.6605 39.4057C44.6731 38.6935 44.9648 38.0148 45.4729 37.5156C45.9809 37.0164 46.6647 36.7367 47.377 36.7367C48.0893 36.7367 48.773 37.0164 49.2811 37.5156C49.7892 38.0148 50.0809 38.6935 50.0934 39.4057Z" fill="var(--fill-0, #969796)"/>
<path id="Vector_16" d="M2.81222 33.9778C2.81222 35.397 2.23847 36.5487 1.52888 36.5487C0.819281 36.5487 0.245531 35.397 0.245531 33.9778V33.9204C0.245531 32.5029 0.820125 31.3546 1.52888 31.3546C2.23847 31.3546 2.81222 32.5029 2.81222 33.9204V33.9778Z" fill="var(--fill-0, #F1F1F1)"/>
<path id="Vector_17" d="M53.7545 31.0044C53.7545 32.4236 53.1807 33.572 52.4703 33.572C51.7624 33.572 51.1869 32.4236 51.1869 31.0044V30.9488C51.1869 29.5279 51.7624 28.3795 52.4703 28.3795C53.1816 28.3795 53.7545 29.5279 53.7545 30.9488V31.0044Z" fill="var(--fill-0, #DF394C)"/>
</g>
</svg>
