<svg preserveAspectRatio="none" width="100%" height="100%" overflow="visible" style="display: block;" viewBox="0 0 50 50" fill="none" xmlns="http://www.w3.org/2000/svg">
<g id="fa:globe" clip-path="url(#clip0_0_17)">
<path id="Vector" d="M25 0C29.5356 0 33.7185 1.11762 37.5488 3.35286C41.3791 5.58811 44.4119 8.62088 46.6471 12.4512C48.8824 16.2815 50 20.4644 50 25C50 29.5356 48.8824 33.7185 46.6471 37.5488C44.4119 41.3791 41.3791 44.4119 37.5488 46.6471C33.7185 48.8824 29.5356 50 25 50C20.4644 50 16.2815 48.8824 12.4512 46.6471C8.62088 44.4119 5.58811 41.3791 3.35286 37.5488C1.11762 33.7185 0 29.5356 0 25C0 20.4644 1.11762 16.2815 3.35286 12.4512C5.58811 8.62088 8.62088 5.58811 12.4512 3.35286C16.2815 1.11762 20.4644 0 25 0ZM33.9193 16.9596C33.8759 16.9813 33.7728 17.0844 33.61 17.2689C33.4473 17.4533 33.3008 17.5564 33.1706 17.5781C33.214 17.5781 33.2628 17.5239 33.3171 17.4154C33.3713 17.3069 33.4256 17.1875 33.4798 17.0573C33.5341 16.9271 33.572 16.8511 33.5937 16.8294C33.724 16.6775 33.9627 16.5148 34.3099 16.3411C34.6137 16.2109 35.178 16.0807 36.0026 15.9505C36.7404 15.7769 37.2938 15.8963 37.6628 16.3086C37.6194 16.2652 37.7224 16.1241 37.972 15.8854C38.2216 15.6467 38.3789 15.5165 38.444 15.4948C38.5091 15.4514 38.6719 15.4026 38.9323 15.3483C39.1927 15.2941 39.3555 15.2127 39.4206 15.1042L39.4857 14.388C39.2253 14.4097 39.0354 14.3338 38.916 14.1602C38.7967 13.9865 38.7261 13.7587 38.7044 13.4766C38.7044 13.52 38.6393 13.6068 38.5091 13.737C38.5091 13.5851 38.4603 13.4983 38.3626 13.4766C38.265 13.4549 38.1402 13.4657 37.9883 13.5091C37.8364 13.5525 37.7387 13.5634 37.6953 13.5417C37.4783 13.4766 37.3155 13.3952 37.207 13.2975C37.0985 13.1999 37.0117 13.0208 36.9466 12.7604C36.8815 12.5 36.8381 12.3372 36.8164 12.2721C36.773 12.1636 36.6699 12.0443 36.5072 11.9141C36.3444 11.7839 36.2413 11.6753 36.1979 11.5885C36.1762 11.5451 36.1491 11.4855 36.1165 11.4095C36.084 11.3335 36.0514 11.263 36.0189 11.1979C35.9863 11.1328 35.9429 11.0731 35.8887 11.0189C35.8344 10.9646 35.7747 10.9375 35.7096 10.9375C35.6445 10.9375 35.5686 10.9918 35.4818 11.1003C35.395 11.2088 35.3136 11.3173 35.2376 11.4258C35.1617 11.5343 35.1128 11.5885 35.0911 11.5885C35.026 11.5451 34.9609 11.5289 34.8958 11.5397C34.8307 11.5506 34.7819 11.5614 34.7493 11.5723C34.7168 11.5831 34.668 11.6157 34.6029 11.6699C34.5378 11.7242 34.4835 11.7622 34.4401 11.7839C34.375 11.8273 34.2828 11.8598 34.1634 11.8815C34.0441 11.9032 33.9518 11.9249 33.8867 11.9466C34.2122 11.8381 34.2014 11.7187 33.8542 11.5885C33.6372 11.5017 33.4635 11.4692 33.3333 11.4909C33.5286 11.4041 33.61 11.2739 33.5775 11.1003C33.5449 10.9266 33.4527 10.7747 33.3008 10.6445H33.4635C33.4418 10.5577 33.3496 10.4655 33.1868 10.3678C33.0241 10.2702 32.8342 10.178 32.6172 10.0911C32.4002 10.0043 32.2591 9.93924 32.194 9.89583C32.0204 9.78733 31.6515 9.68424 31.0872 9.58659C30.523 9.48893 30.1649 9.48351 30.013 9.57031C29.9045 9.70052 29.8557 9.81445 29.8665 9.91211C29.8774 10.0098 29.9208 10.1617 29.9967 10.3678C30.0727 10.574 30.1107 10.7096 30.1107 10.7747C30.1324 10.9049 30.0727 11.046 29.9316 11.1979C29.7906 11.3498 29.7201 11.48 29.7201 11.5885C29.7201 11.7405 29.872 11.9086 30.1758 12.0931C30.4796 12.2776 30.5881 12.5109 30.5013 12.793C30.4362 12.9666 30.2626 13.1402 29.9805 13.3138C29.6983 13.4874 29.5247 13.6176 29.4596 13.7044C29.3511 13.878 29.3349 14.0788 29.4108 14.3066C29.4868 14.5345 29.6007 14.7135 29.7526 14.8437C29.796 14.8872 29.8123 14.9306 29.8014 14.974C29.7906 15.0174 29.7526 15.0662 29.6875 15.1204C29.6224 15.1747 29.5627 15.2181 29.5085 15.2507C29.4542 15.2832 29.3837 15.3212 29.2969 15.3646L29.1992 15.4297C28.9605 15.5382 28.7381 15.4731 28.5319 15.2344C28.3257 14.9957 28.1793 14.7135 28.0924 14.388C27.9405 13.8455 27.7669 13.52 27.5716 13.4115C27.0725 13.2378 26.7578 13.2487 26.6276 13.444C26.5191 13.1619 26.0742 12.8798 25.293 12.5977C24.7504 12.4023 24.1211 12.3589 23.4049 12.4674C23.5352 12.4457 23.5352 12.283 23.4049 11.9792C23.253 11.6536 23.0469 11.5234 22.7865 11.5885C22.8516 11.4583 22.895 11.2684 22.9167 11.0189C22.9384 10.7693 22.9492 10.6228 22.9492 10.5794C23.0143 10.2973 23.1445 10.0477 23.3398 9.83073C23.3615 9.80903 23.4375 9.7168 23.5677 9.55404C23.6979 9.39128 23.801 9.24479 23.877 9.11458C23.9529 8.98437 23.9583 8.91927 23.8932 8.91927C24.6528 9.00608 25.1953 8.88672 25.5208 8.5612C25.6293 8.45269 25.7541 8.26823 25.8952 8.00781C26.0362 7.7474 26.1502 7.56293 26.237 7.45443C26.4323 7.32422 26.5842 7.26454 26.6927 7.27539C26.8012 7.28624 26.9585 7.34592 27.1647 7.45443C27.3709 7.56293 27.5282 7.61719 27.6367 7.61719C27.9405 7.63889 28.1087 7.51953 28.1413 7.25911C28.1738 6.9987 28.0924 6.78168 27.8971 6.60807C28.1576 6.62977 28.1901 6.44531 27.9948 6.05469C27.908 5.90278 27.8212 5.80512 27.7344 5.76172C27.474 5.67491 27.181 5.72917 26.8555 5.92448C26.6819 6.01128 26.7036 6.09809 26.9206 6.1849C26.8989 6.16319 26.7958 6.27713 26.6113 6.52669C26.4269 6.77626 26.2478 6.96615 26.0742 7.09635C25.9006 7.22656 25.727 7.17231 25.5534 6.93359C25.5317 6.91189 25.472 6.76541 25.3743 6.49414C25.2767 6.22287 25.1736 6.07639 25.0651 6.05469C24.8915 6.05469 24.7179 6.21745 24.5443 6.54297C24.6094 6.36936 24.49 6.2066 24.1862 6.05469C23.8824 5.90278 23.622 5.81597 23.4049 5.79427C23.8173 5.53385 23.7305 5.24089 23.1445 4.91536C22.9926 4.82856 22.7702 4.77431 22.4772 4.7526C22.1842 4.7309 21.9727 4.77431 21.8424 4.88281C21.7339 5.03472 21.6743 5.15951 21.6634 5.25716C21.6526 5.35482 21.7068 5.44162 21.8262 5.51758C21.9455 5.59353 22.0595 5.65321 22.168 5.69661C22.2765 5.74002 22.4013 5.78342 22.5423 5.82682C22.6834 5.87023 22.7756 5.90278 22.819 5.92448C23.1228 6.14149 23.2096 6.2934 23.0794 6.38021C23.036 6.40191 22.9438 6.43989 22.8027 6.49414C22.6617 6.54839 22.5369 6.59722 22.4284 6.64062C22.3199 6.68403 22.2548 6.72743 22.2331 6.77083C22.168 6.85764 22.168 7.00955 22.2331 7.22656C22.2982 7.44358 22.2765 7.59549 22.168 7.68229C22.0595 7.57378 21.9618 7.3839 21.875 7.11263C21.7882 6.84136 21.7122 6.66233 21.6471 6.57552C21.799 6.77083 21.5278 6.83594 20.8333 6.77083L20.5078 6.73828C20.421 6.73828 20.2474 6.75998 19.987 6.80339C19.7266 6.84679 19.5041 6.85764 19.3197 6.83594C19.1352 6.81424 18.9887 6.72743 18.8802 6.57552C18.7934 6.40191 18.7934 6.1849 18.8802 5.92448C18.9019 5.83767 18.9453 5.81597 19.0104 5.85937C18.9236 5.79427 18.8043 5.69119 18.6523 5.55013C18.5004 5.40907 18.3919 5.31684 18.3268 5.27344C17.3286 5.59896 16.3086 6.04384 15.2669 6.60807C15.3971 6.62977 15.5273 6.61892 15.6576 6.57552C15.7661 6.53212 15.9071 6.46159 16.0807 6.36393C16.2543 6.26628 16.3628 6.2066 16.4062 6.1849C17.1441 5.88108 17.5998 5.80512 17.7734 5.95703L17.9362 5.79427C18.24 6.14149 18.457 6.41276 18.5872 6.60807C18.4353 6.52127 18.1098 6.51042 17.6107 6.57552C17.1766 6.70573 16.9379 6.83594 16.8945 6.96615C17.0464 7.22656 17.1007 7.42187 17.0573 7.55208C16.9705 7.48698 16.8457 7.37847 16.6829 7.22656C16.5202 7.07465 16.3628 6.95529 16.2109 6.86849C16.059 6.78168 15.8963 6.72743 15.7227 6.70573C15.3754 6.70573 15.1367 6.71658 15.0065 6.73828C11.8381 8.47439 9.28819 10.8832 7.35677 13.9648C7.50868 14.1168 7.63889 14.2036 7.7474 14.2253C7.8342 14.247 7.88845 14.3446 7.91016 14.5182C7.93186 14.6918 7.95898 14.8112 7.99154 14.8763C8.02409 14.9414 8.14887 14.9089 8.36589 14.7786C8.5612 14.9523 8.59375 15.1584 8.46354 15.3971C8.48524 15.3754 8.96267 15.6684 9.89583 16.276C10.3082 16.645 10.536 16.8728 10.5794 16.9596C10.6445 17.1984 10.536 17.3937 10.2539 17.5456C10.2322 17.5022 10.1345 17.4045 9.96094 17.2526C9.78733 17.1007 9.68967 17.0573 9.66797 17.1224C9.60286 17.2309 9.60829 17.4316 9.68424 17.7246C9.7602 18.0176 9.87413 18.1532 10.026 18.1315C9.87413 18.1315 9.77105 18.3051 9.7168 18.6523C9.66254 18.9996 9.63542 19.3848 9.63542 19.8079C9.63542 20.2311 9.62457 20.4861 9.60286 20.5729L9.66797 20.6055C9.60286 20.8659 9.66254 21.2402 9.847 21.7285C10.0315 22.2168 10.2648 22.4284 10.5469 22.3633C10.2648 22.4284 10.4818 22.895 11.1979 23.763C11.3281 23.9366 11.4149 24.0343 11.4583 24.056C11.5234 24.0994 11.6536 24.1808 11.849 24.3001C12.0443 24.4195 12.207 24.528 12.3372 24.6257C12.4674 24.7233 12.576 24.8372 12.6628 24.9674C12.7496 25.076 12.8581 25.3201 12.9883 25.6999C13.1185 26.0796 13.2704 26.3346 13.444 26.4648C13.4006 26.5951 13.5037 26.8121 13.7533 27.1159C14.0028 27.4197 14.1168 27.6693 14.0951 27.8646C14.0734 27.8646 14.0462 27.8754 14.0137 27.8971C13.9811 27.9188 13.954 27.9297 13.9323 27.9297C13.9974 28.0816 14.1656 28.2335 14.4368 28.3854C14.7081 28.5373 14.8763 28.6784 14.9414 28.8086C14.9631 28.8737 14.9848 28.9822 15.0065 29.1341C15.0282 29.286 15.0608 29.4054 15.1042 29.4922C15.1476 29.579 15.2344 29.6007 15.3646 29.5573C15.408 29.1233 15.1476 28.4505 14.5833 27.5391C14.2578 26.9965 14.0734 26.6819 14.0299 26.5951C13.9648 26.4865 13.9052 26.3184 13.8509 26.0905C13.7967 25.8626 13.7478 25.7053 13.7044 25.6185C13.7478 25.6185 13.8129 25.6348 13.8997 25.6673C13.9865 25.6999 14.0788 25.7378 14.1764 25.7812C14.2741 25.8247 14.3555 25.8681 14.4206 25.9115C14.4857 25.9549 14.5074 25.9874 14.4857 26.0091C14.4206 26.161 14.4423 26.3509 14.5508 26.5788C14.6593 26.8066 14.7895 27.0074 14.9414 27.181C15.0933 27.3546 15.2778 27.5608 15.4948 27.7995C15.7118 28.0382 15.842 28.1793 15.8854 28.2227C16.0156 28.3529 16.1675 28.5645 16.3411 28.8574C16.5148 29.1504 16.5148 29.2969 16.3411 29.2969C16.5365 29.2969 16.7535 29.4108 16.9922 29.6387C17.2309 29.8665 17.4154 30.0781 17.5456 30.2734C17.6541 30.447 17.7409 30.7292 17.806 31.1198C17.8711 31.5104 17.9253 31.7708 17.9687 31.901C18.0122 32.053 18.1044 32.1994 18.2454 32.3405C18.3865 32.4816 18.5221 32.5846 18.6523 32.6497L19.1732 32.9102L19.5964 33.138C19.7049 33.1814 19.9056 33.2954 20.1986 33.4798C20.4915 33.6643 20.7248 33.7891 20.8984 33.8542C21.1155 33.941 21.2891 33.9844 21.4193 33.9844C21.5495 33.9844 21.7068 33.9572 21.8913 33.903C22.0757 33.8487 22.2222 33.8108 22.3307 33.7891C22.6562 33.7457 22.9709 33.9084 23.2747 34.2773C23.5786 34.6463 23.8064 34.8741 23.9583 34.9609C24.7396 35.3733 25.3364 35.4926 25.7487 35.319C25.7053 35.3407 25.7107 35.4221 25.765 35.5631C25.8192 35.7042 25.906 35.8724 26.0254 36.0677C26.1447 36.263 26.2424 36.4204 26.3184 36.5397C26.3943 36.6591 26.454 36.7513 26.4974 36.8164C26.6059 36.9466 26.8012 37.1094 27.0833 37.3047C27.3655 37.5 27.5608 37.6628 27.6693 37.793C27.7995 37.7062 27.8754 37.6085 27.8971 37.5C27.832 37.6736 27.908 37.8906 28.125 38.151C28.342 38.4115 28.5373 38.52 28.7109 38.4766C29.0148 38.4115 29.1667 38.0642 29.1667 37.4349C28.4939 37.7604 27.9622 37.5651 27.5716 36.849C27.5716 36.8273 27.5445 36.7676 27.4902 36.6699C27.436 36.5723 27.3926 36.48 27.36 36.3932C27.3275 36.3064 27.3003 36.2142 27.2786 36.1165C27.2569 36.0189 27.2569 35.9375 27.2786 35.8724C27.3003 35.8073 27.3546 35.7747 27.4414 35.7747C27.6367 35.7747 27.7452 35.7368 27.7669 35.6608C27.7886 35.5849 27.7669 35.4492 27.7018 35.2539C27.6367 35.0586 27.5933 34.9175 27.5716 34.8307C27.5499 34.6571 27.4306 34.4401 27.2135 34.1797C26.9965 33.9193 26.8663 33.7565 26.8229 33.6914C26.7144 33.8867 26.5408 33.9735 26.3021 33.9518C26.0634 33.9301 25.8898 33.8325 25.7812 33.6589C25.7812 33.6806 25.765 33.7402 25.7324 33.8379C25.6999 33.9355 25.6836 34.0061 25.6836 34.0495C25.4015 34.0495 25.2387 34.0386 25.1953 34.0169C25.217 33.9518 25.2441 33.7619 25.2767 33.4473C25.3092 33.1326 25.3472 32.8885 25.3906 32.7148C25.4123 32.628 25.472 32.4978 25.5697 32.3242C25.6673 32.1506 25.7487 31.9933 25.8138 31.8522C25.8789 31.7112 25.9223 31.5755 25.944 31.4453C25.9657 31.3151 25.9169 31.212 25.7975 31.1361C25.6782 31.0601 25.4883 31.033 25.2279 31.0547C24.8155 31.0764 24.5334 31.2934 24.3815 31.7057C24.3598 31.7708 24.3273 31.8848 24.2839 32.0475C24.2405 32.2103 24.1862 32.3351 24.1211 32.4219C24.056 32.5087 23.9583 32.5846 23.8281 32.6497C23.6762 32.7148 23.4158 32.7365 23.0469 32.7148C22.678 32.6931 22.4175 32.6389 22.2656 32.5521C21.9835 32.3785 21.7394 32.0638 21.5332 31.6081C21.327 31.1523 21.224 30.7509 21.224 30.4036C21.224 30.1866 21.2511 29.8991 21.3053 29.541C21.3596 29.1829 21.3921 28.9117 21.403 28.7272C21.4138 28.5428 21.3542 28.2769 21.224 27.9297C21.2891 27.8863 21.3867 27.7832 21.5169 27.6204C21.6471 27.4577 21.7556 27.3437 21.8424 27.2786C21.8858 27.2569 21.9347 27.2407 21.9889 27.2298C22.0432 27.219 22.092 27.219 22.1354 27.2298C22.1788 27.2407 22.2222 27.2244 22.2656 27.181C22.309 27.1376 22.3416 27.0725 22.3633 26.9857C22.3416 26.964 22.2982 26.9314 22.2331 26.888C22.168 26.8229 22.1246 26.7904 22.1029 26.7904C22.2548 26.8555 22.564 26.8392 23.0306 26.7415C23.4972 26.6439 23.7956 26.6602 23.9258 26.7904C24.2513 27.0291 24.49 27.0074 24.6419 26.7253C24.6419 26.7036 24.6148 26.6005 24.5605 26.416C24.5063 26.2316 24.5009 26.0851 24.5443 25.9766C24.6528 26.5625 24.9674 26.6602 25.4883 26.2695C25.5534 26.3346 25.7216 26.3889 25.9928 26.4323C26.2641 26.4757 26.454 26.5299 26.5625 26.5951C26.6276 26.6385 26.7036 26.6981 26.7904 26.7741C26.8772 26.85 26.9368 26.8989 26.9694 26.9206C27.002 26.9423 27.0562 26.9368 27.1322 26.9043C27.2081 26.8717 27.3003 26.8012 27.4089 26.6927C27.6259 26.9965 27.7561 27.2569 27.7995 27.474C28.0382 28.342 28.2444 28.8194 28.418 28.9062C28.5699 28.9714 28.6892 28.9931 28.776 28.9714C28.8628 28.9497 28.9117 28.8466 28.9225 28.6621C28.9334 28.4776 28.9334 28.3257 28.9225 28.2064C28.9117 28.087 28.8954 27.9514 28.8737 27.7995L28.8411 27.5391V26.9531L28.8086 26.6927C28.4831 26.6276 28.2823 26.4974 28.2064 26.3021C28.1304 26.1068 28.1467 25.906 28.2552 25.6999C28.3637 25.4937 28.5265 25.293 28.7435 25.0977C28.7652 25.076 28.852 25.038 29.0039 24.9837C29.1558 24.9295 29.324 24.8589 29.5085 24.7721C29.6929 24.6853 29.8286 24.5985 29.9154 24.5117C30.3711 24.0994 30.5339 23.7196 30.4036 23.3724C30.5556 23.3724 30.6749 23.2747 30.7617 23.0794C30.74 23.0794 30.6858 23.0469 30.599 22.9818C30.5122 22.9167 30.4308 22.8624 30.3548 22.819C30.2789 22.7756 30.23 22.7539 30.2083 22.7539C30.4036 22.6454 30.4253 22.4718 30.2734 22.2331C30.3819 22.168 30.4633 22.0486 30.5176 21.875C30.5718 21.7014 30.6532 21.5929 30.7617 21.5495C30.957 21.8099 31.1849 21.8316 31.4453 21.6146C31.6189 21.441 31.6298 21.2674 31.4779 21.0937C31.5864 20.9418 31.8088 20.8279 32.1452 20.752C32.4816 20.676 32.6823 20.5729 32.7474 20.4427C32.8993 20.4861 32.9861 20.4644 33.0078 20.3776C33.0295 20.2908 33.0404 20.1606 33.0404 19.987C33.0404 19.8134 33.0729 19.6832 33.138 19.5964C33.2248 19.4878 33.3876 19.3902 33.6263 19.3034C33.865 19.2166 34.0061 19.1623 34.0495 19.1406L34.6029 18.7826C34.668 18.6957 34.668 18.6523 34.6029 18.6523C34.9935 18.6957 35.3299 18.5764 35.612 18.2943C35.829 18.0556 35.7639 17.8385 35.4167 17.6432C35.4818 17.513 35.4492 17.4099 35.319 17.334C35.1888 17.258 35.026 17.1984 34.8307 17.1549C34.8958 17.1332 35.0206 17.1278 35.2051 17.1387C35.3895 17.1495 35.5035 17.1332 35.5469 17.0898C35.8724 16.8728 35.7964 16.6992 35.319 16.569C34.9501 16.4605 34.4835 16.5907 33.9193 16.9596ZM28.6133 45.5078C33.0838 44.7266 36.8924 42.6758 40.0391 39.3555C39.974 39.2904 39.8383 39.2415 39.6322 39.209C39.426 39.1764 39.2904 39.1385 39.2253 39.0951C38.8346 38.9431 38.5742 38.8563 38.444 38.8346C38.4657 38.6827 38.4386 38.5417 38.3626 38.4115C38.2867 38.2812 38.1999 38.1836 38.1022 38.1185C38.0046 38.0534 37.8689 37.9666 37.6953 37.8581C37.5217 37.7496 37.4023 37.6736 37.3372 37.6302C37.2938 37.5868 37.2179 37.5217 37.1094 37.4349C37.0009 37.3481 36.9249 37.2884 36.8815 37.2559C36.8381 37.2233 36.7567 37.1745 36.6374 37.1094C36.518 37.0443 36.4258 37.0226 36.3607 37.0443C36.2956 37.066 36.1871 37.0768 36.0352 37.0768L35.9375 37.1094C35.8724 37.1311 35.8127 37.1582 35.7585 37.1908C35.7042 37.2233 35.6445 37.2559 35.5794 37.2884C35.5143 37.321 35.4709 37.3535 35.4492 37.3861C35.4275 37.4186 35.4275 37.4457 35.4492 37.4674C34.9935 37.0985 34.6029 36.8598 34.2773 36.7513C34.1688 36.7296 34.0495 36.6699 33.9193 36.5723C33.7891 36.4746 33.6751 36.3987 33.5775 36.3444C33.4798 36.2901 33.3713 36.2739 33.252 36.2956C33.1326 36.3173 33.0078 36.3932 32.8776 36.5234C32.7691 36.6319 32.704 36.7947 32.6823 37.0117C32.6606 37.2287 32.6389 37.3698 32.6172 37.4349C32.4653 37.3264 32.4653 37.1365 32.6172 36.8652C32.7691 36.594 32.7908 36.3932 32.6823 36.263C32.6172 36.1328 32.5033 36.084 32.3405 36.1165C32.1777 36.1491 32.0475 36.1979 31.9499 36.263C31.8522 36.3281 31.7274 36.4204 31.5755 36.5397C31.4236 36.6591 31.326 36.7296 31.2826 36.7513C31.2391 36.773 31.1469 36.8327 31.0059 36.9303C30.8648 37.028 30.7726 37.1094 30.7292 37.1745C30.6641 37.2613 30.599 37.3915 30.5339 37.5651C30.4687 37.7387 30.4145 37.8581 30.3711 37.9232C30.3277 37.8364 30.2029 37.7658 29.9967 37.7116C29.7906 37.6573 29.6875 37.5977 29.6875 37.5326C29.7309 37.7496 29.7743 38.1293 29.8177 38.6719C29.8611 39.2144 29.9154 39.6267 29.9805 39.9089C30.1324 40.5816 30.0022 41.1024 29.5898 41.4714C29.0039 42.0139 28.6892 42.4479 28.6458 42.7734C28.559 43.2509 28.6892 43.533 29.0365 43.6198C29.0365 43.7717 28.9497 43.9941 28.776 44.2871C28.6024 44.5801 28.5265 44.8134 28.5482 44.987C28.5482 45.1172 28.5699 45.2908 28.6133 45.5078Z" fill="var(--fill-0, #4E52FB)"/>
</g>
<defs>
<clipPath id="clip0_0_17">
<rect width="50" height="50" fill="white"/>
</clipPath>
</defs>
</svg>
