<svg preserveAspectRatio="none" width="100%" height="100%" overflow="visible" style="display: block;" viewBox="0 0 36 36" fill="none" xmlns="http://www.w3.org/2000/svg">
<g id="fluent:next-frame-24-filled">
<path id="Vector" d="M8.25 5.625C8.25 5.32663 8.13147 5.04048 7.9205 4.8295C7.70952 4.61853 7.42337 4.5 7.125 4.5C6.82663 4.5 6.54048 4.61853 6.3295 4.8295C6.11853 5.04048 6 5.32663 6 5.625V30.375C6 30.6734 6.11853 30.9595 6.3295 31.1705C6.54048 31.3815 6.82663 31.5 7.125 31.5C7.42337 31.5 7.70952 31.3815 7.9205 31.1705C8.13147 30.9595 8.25 30.6734 8.25 30.375V5.625ZM17.61 4.965C15.8655 3.7695 13.5 5.016 13.5 7.128V28.8705C13.5 30.99 15.8835 32.2365 17.625 31.026L33.372 20.073C33.7208 19.8304 34.0054 19.5067 34.2015 19.1298C34.3977 18.7528 34.4993 18.3339 34.4979 17.9091C34.4964 17.4842 34.3918 17.066 34.1931 16.6905C33.9944 16.3149 33.7075 15.9932 33.357 15.753L17.61 4.965Z" fill="var(--fill-0, #D8D8EB)"/>
</g>
</svg>
