<svg preserveAspectRatio="none" width="100%" height="100%" overflow="visible" style="display: block;" viewBox="0 0 50 50" fill="none" xmlns="http://www.w3.org/2000/svg">
<g id="fluent:people-team-16-filled">
<path id="Vector" d="M25 6.25625C24.1801 6.25625 23.3681 6.41775 22.6106 6.73153C21.8531 7.04531 21.1648 7.50522 20.585 8.085C20.0052 8.66479 19.5453 9.35309 19.2315 10.1106C18.9177 10.8681 18.7562 11.6801 18.7562 12.5C18.7562 13.3199 18.9177 14.1319 19.2315 14.8894C19.5453 15.6469 20.0052 16.3352 20.585 16.915C21.1648 17.4948 21.8531 17.9547 22.6106 18.2685C23.3681 18.5823 24.1801 18.7438 25 18.7438C26.6559 18.7438 28.2441 18.0859 29.415 16.915C30.5859 15.7441 31.2438 14.1559 31.2438 12.5C31.2438 10.8441 30.5859 9.25593 29.415 8.085C28.2441 6.91407 26.6559 6.25625 25 6.25625ZM39.0625 9.375C37.8193 9.375 36.627 9.86886 35.7479 10.7479C34.8689 11.627 34.375 12.8193 34.375 14.0625C34.375 15.3057 34.8689 16.498 35.7479 17.3771C36.627 18.2561 37.8193 18.75 39.0625 18.75C40.3057 18.75 41.498 18.2561 42.3771 17.3771C43.2561 16.498 43.75 15.3057 43.75 14.0625C43.75 12.8193 43.2561 11.627 42.3771 10.7479C41.498 9.86886 40.3057 9.375 39.0625 9.375ZM10.9375 9.375C9.6943 9.375 8.50201 9.86886 7.62294 10.7479C6.74386 11.627 6.25 12.8193 6.25 14.0625C6.25 15.3057 6.74386 16.498 7.62294 17.3771C8.50201 18.2561 9.6943 18.75 10.9375 18.75C12.1807 18.75 13.373 18.2561 14.2521 17.3771C15.1311 16.498 15.625 15.3057 15.625 14.0625C15.625 12.8193 15.1311 11.627 14.2521 10.7479C13.373 9.86886 12.1807 9.375 10.9375 9.375ZM15.625 24.9781C15.6308 24.1531 15.9626 23.3639 16.548 22.7825C17.1334 22.2012 17.925 21.875 18.75 21.875H31.25C32.0788 21.875 32.8737 22.2042 33.4597 22.7903C34.0458 23.3763 34.375 24.1712 34.375 25V34.375C34.3758 35.3586 34.2219 36.3362 33.9188 37.2719C33.2268 39.3928 31.8014 41.1976 29.8985 42.3622C27.9956 43.5267 25.7399 43.9748 23.5363 43.6259C21.3328 43.2769 19.3259 42.1539 17.8759 40.4584C16.4259 38.7629 15.6278 36.606 15.625 34.375V24.9781ZM12.5 25C12.5 23.8594 12.8031 22.7938 13.3375 21.875H6.25C5.4212 21.875 4.62634 22.2042 4.04029 22.7903C3.45424 23.3763 3.125 24.1712 3.125 25V32.8125C3.12457 34.0916 3.43821 35.3512 4.03835 36.4807C4.6385 37.6103 5.5068 38.5752 6.56701 39.2907C7.62721 40.0063 8.84689 40.4506 10.1189 40.5846C11.391 40.7186 12.6765 40.5383 13.8625 40.0594C12.965 38.298 12.498 36.3488 12.5 34.3719V25ZM37.5 25V34.375C37.5 36.4219 37.0094 38.3531 36.1375 40.0594C37.3235 40.5383 38.609 40.7186 39.8811 40.5846C41.1531 40.4506 42.3728 40.0063 43.433 39.2907C44.4932 38.5752 45.3615 37.6103 45.9616 36.4807C46.5618 35.3512 46.8754 34.0916 46.875 32.8125V25C46.875 24.1712 46.5458 23.3763 45.9597 22.7903C45.3737 22.2042 44.5788 21.875 43.75 21.875H36.6625C37.1938 22.7938 37.5 23.8594 37.5 25Z" fill="var(--fill-0, #4E52FB)"/>
</g>
</svg>
