<svg preserveAspectRatio="none" width="100%" height="100%" overflow="visible" style="display: block;" viewBox="0 0 30 32.721" fill="none" xmlns="http://www.w3.org/2000/svg">
<g id="Group">
<g id="Vector">
</g>
<path id="Vector_2" fill-rule="evenodd" clip-rule="evenodd" d="M15 0C6.7155 0 0 6.7155 0 15C0 17.835 0.7875 20.49 2.157 22.752L0.819 27.3C0.742177 27.5611 0.737122 27.8381 0.804367 28.1019C0.871611 28.3656 1.00867 28.6064 1.20114 28.7989C1.39361 28.9913 1.63437 29.1284 1.89812 29.1956C2.16188 29.2629 2.43888 29.2578 2.7 29.181L7.248 27.843C9.58611 29.2574 12.2674 30.0035 15 30C23.2845 30 30 23.2845 30 15C30 6.7155 23.2845 0 15 0ZM11.607 18.3945C14.6415 21.4275 17.538 21.828 18.561 21.8655C20.1165 21.9225 21.6315 20.7345 22.221 19.356C22.2948 19.1844 22.3215 18.9962 22.2983 18.8108C22.2751 18.6255 22.2028 18.4496 22.089 18.3015C21.267 17.2515 20.1555 16.497 19.0695 15.747C18.8429 15.5899 18.5641 15.5267 18.2919 15.5709C18.0197 15.6151 17.7753 15.7632 17.61 15.984L16.71 17.3565C16.6624 17.43 16.5887 17.4827 16.5038 17.5038C16.4188 17.525 16.329 17.5131 16.2525 17.4705C15.642 17.121 14.7525 16.527 14.1135 15.888C13.4745 15.249 12.9165 14.4 12.603 13.8285C12.5651 13.7557 12.5544 13.6717 12.5728 13.5917C12.5912 13.5117 12.6376 13.4409 12.7035 13.392L14.0895 12.363C14.2879 12.1914 14.4159 11.9526 14.4492 11.6924C14.4824 11.4322 14.4184 11.1689 14.2695 10.953C13.5975 9.969 12.8145 8.718 11.679 7.8885C11.5321 7.78299 11.3605 7.71719 11.1808 7.69748C11.001 7.67777 10.8192 7.70482 10.653 7.776C9.273 8.367 8.079 9.882 8.136 11.4405C8.1735 12.4635 8.574 15.36 11.607 18.3945Z" fill="var(--fill-0, #E8E1E5)"/>
</g>
</svg>
