<svg preserveAspectRatio="none" width="100%" height="100%" overflow="visible" style="display: block;" viewBox="0 0 49.75 49.75" fill="none" xmlns="http://www.w3.org/2000/svg">
<g id="Group">
<path id="Vector" fill-rule="evenodd" clip-rule="evenodd" d="M26.2292 45.1875C28.7188 45.1875 31.1841 44.6971 33.4842 43.7444C35.7843 42.7916 37.8743 41.3952 39.6347 39.6347C41.3952 37.8743 42.7916 35.7843 43.7444 33.4842C44.6971 31.1841 45.1875 28.7188 45.1875 26.2292C45.1875 23.7395 44.6971 21.2743 43.7444 18.9741C42.7916 16.674 41.3952 14.584 39.6347 12.8236C37.8743 11.0632 35.7843 9.6667 33.4842 8.71395C31.1841 7.7612 28.7188 7.27083 26.2292 7.27083C21.2011 7.27083 16.379 9.26822 12.8236 12.8236C9.26822 16.379 7.27083 21.2011 7.27083 26.2292C7.27083 31.2572 9.26822 36.0794 12.8236 39.6347C16.379 43.1901 21.2011 45.1875 26.2292 45.1875ZM21.0481 13.7167C22.6908 13.0368 24.4513 12.6871 26.2292 12.6875C26.5883 12.6875 26.9328 12.5448 27.1867 12.2909C27.4407 12.0369 27.5833 11.6925 27.5833 11.3333C27.5833 10.9742 27.4407 10.6297 27.1867 10.3758C26.9328 10.1218 26.5883 9.97917 26.2292 9.97917C21.9194 9.97917 17.7861 11.6912 14.7387 14.7387C11.6912 17.7861 9.97917 21.9194 9.97917 26.2292C9.97917 26.5883 10.1218 26.9328 10.3758 27.1867C10.6297 27.4407 10.9742 27.5833 11.3333 27.5833C11.6925 27.5833 12.0369 27.4407 12.2909 27.1867C12.5448 26.9328 12.6875 26.5883 12.6875 26.2292C12.6873 23.5505 13.4815 20.9319 14.9697 18.7046C16.4579 16.4774 18.5732 14.7415 21.0481 13.7167Z" fill="var(--fill-0, #D1D2F1)"/>
<path id="Vector_2" d="M49.25 49.25L39.7708 39.7708" stroke="var(--stroke-0, #D1D2F1)" stroke-linecap="round"/>
<path id="Vector_3" d="M23.5208 46.5417C36.2349 46.5417 46.5417 36.2349 46.5417 23.5208C46.5417 10.8068 36.2349 0.5 23.5208 0.5C10.8068 0.5 0.5 10.8068 0.5 23.5208C0.5 36.2349 10.8068 46.5417 23.5208 46.5417Z" stroke="var(--stroke-0, #D1D2F1)"/>
</g>
</svg>
