<svg preserveAspectRatio="none" width="100%" height="100%" overflow="visible" style="display: block;" viewBox="0 0 46 46" fill="none" xmlns="http://www.w3.org/2000/svg">
<g id="ix:user-profile-filled">
<path id="Vector" fill-rule="evenodd" clip-rule="evenodd" d="M23 3.83336C25.517 3.83335 28.0094 4.3291 30.3348 5.29231C32.6602 6.25552 34.7731 7.66732 36.5529 9.44711C38.3327 11.2269 39.7445 13.3398 40.7077 15.6652C41.671 17.9906 42.1667 20.483 42.1667 23C42.1667 33.5855 33.5855 42.1667 23 42.1667C12.4146 42.1667 3.83336 33.5855 3.83336 23C3.83336 12.4146 12.4146 3.83336 23 3.83336ZM24.9167 24.9167H21.0834C16.3383 24.9167 12.2645 27.7906 10.5074 31.8929C13.2875 35.7913 17.8469 38.3334 23 38.3334C28.1531 38.3334 32.7125 35.7913 35.4927 31.8926C33.7356 27.7906 29.6618 24.9167 24.9167 24.9167ZM23 9.58336C19.8244 9.58336 17.25 12.1577 17.25 15.3334C17.25 18.509 19.8244 21.0834 23 21.0834C26.1756 21.0834 28.75 18.509 28.75 15.3334C28.75 12.1577 26.1757 9.58336 23 9.58336Z" fill="var(--fill-0, #D8D8EB)"/>
</g>
</svg>
