<svg preserveAspectRatio="none" width="100%" height="100%" overflow="visible" style="display: block;" viewBox="0 0 46 46" fill="none" xmlns="http://www.w3.org/2000/svg">
<g id="iconamoon:delivery-fast-fill">
<path id="Vector" fill-rule="evenodd" clip-rule="evenodd" d="M1.91667 5.75C1.91667 5.24167 2.1186 4.75416 2.47805 4.39471C2.83749 4.03527 3.325 3.83333 3.83333 3.83333H24.9167C25.425 3.83333 25.9125 4.03527 26.272 4.39471C26.6314 4.75416 26.8333 5.24167 26.8333 5.75V15.3333H34.5C35.7585 15.3333 37.0047 15.5812 38.1674 16.0628C39.3301 16.5444 40.3865 17.2503 41.2764 18.1402C42.1663 19.0301 42.8722 20.0866 43.3538 21.2493C43.8355 22.412 44.0833 23.6582 44.0833 24.9167V32.5833C44.0838 33.8173 43.6874 35.0186 42.9526 36.0099C42.2177 37.0012 41.1835 37.7298 40.0028 38.088C39.6512 39.2476 38.9424 40.2665 37.9774 40.9993C37.0123 41.732 35.8405 42.1412 34.6291 42.1684C33.4177 42.1956 32.2287 41.8395 31.2318 41.1507C30.2349 40.462 29.481 39.476 29.0778 38.3333H16.9242C16.5209 39.476 15.7671 40.462 14.7701 41.1507C13.7732 41.8395 12.5842 42.1956 11.3728 42.1684C10.1614 42.1412 8.98957 41.732 8.02456 40.9993C7.05955 40.2665 6.35069 39.2476 5.99917 38.088C4.81803 37.7301 3.7834 37.0016 3.04821 36.0103C2.31302 35.0191 1.91629 33.8175 1.91667 32.5833V24.9167H13.4167C13.925 24.9167 14.4125 24.7147 14.772 24.3553C15.1314 23.9958 15.3333 23.5083 15.3333 23C15.3333 22.4917 15.1314 22.0042 14.772 21.6447C14.4125 21.2853 13.925 21.0833 13.4167 21.0833H1.91667V17.25H9.58333C10.0917 17.25 10.5792 17.0481 10.9386 16.6886C11.2981 16.3292 11.5 15.8417 11.5 15.3333C11.5 14.825 11.2981 14.3375 10.9386 13.978C10.5792 13.6186 10.0917 13.4167 9.58333 13.4167H1.91667V5.75ZM26.8333 34.5H29.0778C29.4567 33.4275 30.1451 32.4915 31.0561 31.8104C31.9671 31.1293 33.0596 30.7336 34.1954 30.6735C35.3313 30.6134 36.4594 30.8915 37.4372 31.4727C38.415 32.0538 39.1984 32.9119 39.6884 33.9384C40.0479 33.5791 40.2499 33.0916 40.25 32.5833V24.9167C40.25 23.3917 39.6442 21.9291 38.5659 20.8508C37.4875 19.7725 36.025 19.1667 34.5 19.1667H26.8333V34.5ZM13.4167 36.4167C13.4167 35.9083 13.2147 35.4208 12.8553 35.0614C12.4958 34.7019 12.0083 34.5 11.5 34.5C10.9917 34.5 10.5042 34.7019 10.1447 35.0614C9.78527 35.4208 9.58333 35.9083 9.58333 36.4167C9.58333 36.925 9.78527 37.4125 10.1447 37.772C10.5042 38.1314 10.9917 38.3333 11.5 38.3333C12.0083 38.3333 12.4958 38.1314 12.8553 37.772C13.2147 37.4125 13.4167 36.925 13.4167 36.4167ZM33.1449 35.0616C32.7854 35.4209 32.5834 35.9084 32.5833 36.4167C32.5832 36.8601 32.7369 37.2899 33.0181 37.6327C33.2994 37.9755 33.6908 38.2102 34.1257 38.2968C34.5606 38.3834 35.0121 38.3166 35.4032 38.1076C35.7943 37.8986 36.1009 37.5605 36.2706 37.1509C36.4404 36.7412 36.4629 36.2854 36.3342 35.861C36.2056 35.4367 35.9338 35.07 35.5651 34.8236C35.1964 34.5772 34.7537 34.4662 34.3124 34.5096C33.8711 34.553 33.4585 34.7481 33.1449 35.0616Z" fill="var(--fill-0, #D8D8EB)"/>
</g>
</svg>
