<svg preserveAspectRatio="none" width="100%" height="100%" overflow="visible" style="display: block;" viewBox="0 0 46 46" fill="none" xmlns="http://www.w3.org/2000/svg">
<g id="mdi:password">
<path id="Vector" d="M23 32.5833C24.0167 32.5833 24.9917 32.1795 25.7106 31.4606C26.4295 30.7417 26.8333 29.7667 26.8333 28.75C26.8333 27.7333 26.4295 26.7583 25.7106 26.0394C24.9917 25.3205 24.0167 24.9167 23 24.9167C21.9833 24.9167 21.0083 25.3205 20.2894 26.0394C19.5705 26.7583 19.1667 27.7333 19.1667 28.75C19.1667 29.7667 19.5705 30.7417 20.2894 31.4606C21.0083 32.1795 21.9833 32.5833 23 32.5833ZM34.5 15.3333C35.5167 15.3333 36.4917 15.7372 37.2106 16.4561C37.9295 17.175 38.3333 18.15 38.3333 19.1667V38.3333C38.3333 39.35 37.9295 40.325 37.2106 41.0439C36.4917 41.7628 35.5167 42.1667 34.5 42.1667H11.5C10.4833 42.1667 9.50831 41.7628 8.78942 41.0439C8.07053 40.325 7.66667 39.35 7.66667 38.3333V19.1667C7.66667 18.15 8.07053 17.175 8.78942 16.4561C9.50831 15.7372 10.4833 15.3333 11.5 15.3333H13.4167V11.5C13.4167 8.95834 14.4263 6.52078 16.2236 4.72356C18.0208 2.92634 20.4583 1.91667 23 1.91667C24.2585 1.91667 25.5047 2.16455 26.6674 2.64615C27.8301 3.12776 28.8865 3.83367 29.7764 4.72356C30.6663 5.61345 31.3722 6.66991 31.8538 7.83262C32.3355 8.99532 32.5833 10.2415 32.5833 11.5V15.3333H34.5ZM23 5.75C21.475 5.75 20.0125 6.3558 18.9341 7.43414C17.8558 8.51247 17.25 9.975 17.25 11.5V15.3333H28.75V11.5C28.75 9.975 28.1442 8.51247 27.0659 7.43414C25.9875 6.3558 24.525 5.75 23 5.75Z" fill="var(--fill-0, #D8D8EB)"/>
</g>
</svg>
