<svg preserveAspectRatio="none" width="100%" height="100%" overflow="visible" style="display: block;" viewBox="0 0 46 46" fill="none" xmlns="http://www.w3.org/2000/svg">
<g id="material-symbols:order-approve">
<path id="Vector" d="M33.1104 38.8125L39.7708 32.2L37.7583 30.1875L33.1104 34.7396L31.2417 32.8708L29.2292 34.9313L33.1104 38.8125ZM11.5 17.25H34.5V13.4167H11.5V17.25ZM34.5 44.0833C31.8486 44.0833 29.5889 43.1486 27.7208 41.2793C25.8526 39.4099 24.9179 37.1501 24.9167 34.5C24.9154 31.8499 25.8501 29.5901 27.7208 27.7208C29.5914 25.8514 31.8512 24.9167 34.5 24.9167C37.1488 24.9167 39.4092 25.8514 41.2812 27.7208C43.1531 29.5901 44.0872 31.8499 44.0833 34.5C44.0795 37.1501 43.1448 39.4105 41.2793 41.2812C39.4137 43.1518 37.1539 44.0859 34.5 44.0833ZM5.75 42.1667V9.58333C5.75 8.52917 6.12567 7.62706 6.877 6.877C7.62833 6.12694 8.53044 5.75128 9.58333 5.75H36.4167C37.4708 5.75 38.3736 6.12567 39.1249 6.877C39.8762 7.62833 40.2513 8.53044 40.25 9.58333V22.3771C39.3556 21.9299 38.4209 21.6021 37.4459 21.3938C36.471 21.1856 35.489 21.0821 34.5 21.0833H11.5V24.9167H25.1083C24.5653 25.4597 24.0625 26.0507 23.5999 26.6896C23.1374 27.3285 22.7298 28.0153 22.3771 28.75H11.5V32.5833H21.2271C21.1632 32.9028 21.1236 33.2146 21.1082 33.5187C21.0929 33.8228 21.0846 34.1499 21.0833 34.5C21.0833 35.8417 21.2673 37.1278 21.6353 38.3583C22.0033 39.5888 22.5541 40.7624 23.2875 41.8792L23 42.1667L20.125 39.2917L17.25 42.1667L14.375 39.2917L11.5 42.1667L8.625 39.2917L5.75 42.1667Z" fill="var(--fill-0, #D8D8EB)"/>
</g>
</svg>
