<svg preserveAspectRatio="none" width="100%" height="100%" overflow="visible" style="display: block;" viewBox="0 0 46 46" fill="none" xmlns="http://www.w3.org/2000/svg">
<g id="mdi:email">
<path id="Vector" d="M38.3333 15.3333L23 24.9167L7.66667 15.3333V11.5L23 21.0833L38.3333 11.5M38.3333 7.66667H7.66667C5.53917 7.66667 3.83333 9.3725 3.83333 11.5V34.5C3.83333 35.5167 4.2372 36.4917 4.95609 37.2106C5.67498 37.9295 6.65 38.3333 7.66667 38.3333H38.3333C39.35 38.3333 40.325 37.9295 41.0439 37.2106C41.7628 36.4917 42.1667 35.5167 42.1667 34.5V11.5C42.1667 10.4833 41.7628 9.50831 41.0439 8.78942C40.325 8.07053 39.35 7.66667 38.3333 7.66667Z" fill="var(--fill-0, #D8D8EB)"/>
</g>
</svg>
