<svg preserveAspectRatio="none" width="100%" height="100%" overflow="visible" style="display: block;" viewBox="0 0 50 50" fill="none" xmlns="http://www.w3.org/2000/svg">
<g id="ph:building-office-fill">
<path id="Vector" d="M48.4375 40.625H45.3125V18.75C45.7269 18.75 46.1243 18.5854 46.4174 18.2924C46.7104 17.9993 46.875 17.6019 46.875 17.1875C46.875 16.7731 46.7104 16.3757 46.4174 16.0826C46.1243 15.7896 45.7269 15.625 45.3125 15.625H35.9375V9.375C36.3519 9.375 36.7493 9.21038 37.0424 8.91735C37.3354 8.62433 37.5 8.2269 37.5 7.8125C37.5 7.3981 37.3354 7.00067 37.0424 6.70765C36.7493 6.41462 36.3519 6.25 35.9375 6.25H7.8125C7.3981 6.25 7.00067 6.41462 6.70765 6.70765C6.41462 7.00067 6.25 7.3981 6.25 7.8125C6.25 8.2269 6.41462 8.62433 6.70765 8.91735C7.00067 9.21038 7.3981 9.375 7.8125 9.375V40.625H4.6875C4.2731 40.625 3.87567 40.7896 3.58265 41.0826C3.28962 41.3757 3.125 41.7731 3.125 42.1875C3.125 42.6019 3.28962 42.9993 3.58265 43.2924C3.87567 43.5854 4.2731 43.75 4.6875 43.75H48.4375C48.8519 43.75 49.2493 43.5854 49.5424 43.2924C49.8354 42.9993 50 42.6019 50 42.1875C50 41.7731 49.8354 41.3757 49.5424 41.0826C49.2493 40.7896 48.8519 40.625 48.4375 40.625ZM15.625 14.0625H18.75C19.1644 14.0625 19.5618 14.2271 19.8549 14.5201C20.1479 14.8132 20.3125 15.2106 20.3125 15.625C20.3125 16.0394 20.1479 16.4368 19.8549 16.7299C19.5618 17.0229 19.1644 17.1875 18.75 17.1875H15.625C15.2106 17.1875 14.8132 17.0229 14.5201 16.7299C14.2271 16.4368 14.0625 16.0394 14.0625 15.625C14.0625 15.2106 14.2271 14.8132 14.5201 14.5201C14.8132 14.2271 15.2106 14.0625 15.625 14.0625ZM14.0625 23.4375C14.0625 23.0231 14.2271 22.6257 14.5201 22.3326C14.8132 22.0396 15.2106 21.875 15.625 21.875H18.75C19.1644 21.875 19.5618 22.0396 19.8549 22.3326C20.1479 22.6257 20.3125 23.0231 20.3125 23.4375C20.3125 23.8519 20.1479 24.2493 19.8549 24.5424C19.5618 24.8354 19.1644 25 18.75 25H15.625C15.2106 25 14.8132 24.8354 14.5201 24.5424C14.2271 24.2493 14.0625 23.8519 14.0625 23.4375ZM26.5625 40.625H17.1875V31.25H26.5625V40.625ZM28.125 25H25C24.5856 25 24.1882 24.8354 23.8951 24.5424C23.6021 24.2493 23.4375 23.8519 23.4375 23.4375C23.4375 23.0231 23.6021 22.6257 23.8951 22.3326C24.1882 22.0396 24.5856 21.875 25 21.875H28.125C28.5394 21.875 28.9368 22.0396 29.2299 22.3326C29.5229 22.6257 29.6875 23.0231 29.6875 23.4375C29.6875 23.8519 29.5229 24.2493 29.2299 24.5424C28.9368 24.8354 28.5394 25 28.125 25ZM28.125 17.1875H25C24.5856 17.1875 24.1882 17.0229 23.8951 16.7299C23.6021 16.4368 23.4375 16.0394 23.4375 15.625C23.4375 15.2106 23.6021 14.8132 23.8951 14.5201C24.1882 14.2271 24.5856 14.0625 25 14.0625H28.125C28.5394 14.0625 28.9368 14.2271 29.2299 14.5201C29.5229 14.8132 29.6875 15.2106 29.6875 15.625C29.6875 16.0394 29.5229 16.4368 29.2299 16.7299C28.9368 17.0229 28.5394 17.1875 28.125 17.1875ZM42.1875 40.625H35.9375V18.75H42.1875V40.625Z" fill="var(--fill-0, #4E52FB)"/>
</g>
</svg>
