<svg preserveAspectRatio="none" width="100%" height="100%" overflow="visible" style="display: block;" viewBox="0 0 46 46" fill="none" xmlns="http://www.w3.org/2000/svg">
<g id="roentgen:phone">
<path id="Vector" d="M14.375 5.75C12.7822 5.75 11.5 7.03225 11.5 8.625V37.375C11.5 38.9678 12.7822 40.25 14.375 40.25H31.625C33.2178 40.25 34.5 38.9678 34.5 37.375V8.625C34.5 7.03225 33.2178 5.75 31.625 5.75H14.375ZM15.8125 8.625H30.1875C30.9839 8.625 31.625 9.26612 31.625 10.0625V30.1875C31.625 30.9839 30.9839 31.625 30.1875 31.625H15.8125C15.4313 31.625 15.0656 31.4736 14.796 31.204C14.5265 30.9344 14.375 30.5687 14.375 30.1875V10.0625C14.375 9.26612 15.0161 8.625 15.8125 8.625ZM21.5625 34.5H24.4375C24.8187 34.5 25.1844 34.6514 25.454 34.921C25.7236 35.1906 25.875 35.5563 25.875 35.9375C25.875 36.3187 25.7236 36.6844 25.454 36.954C25.1844 37.2236 24.8187 37.375 24.4375 37.375H21.5625C21.1813 37.375 20.8156 37.2236 20.546 36.954C20.2765 36.6844 20.125 36.3187 20.125 35.9375C20.125 35.5563 20.2765 35.1906 20.546 34.921C20.8156 34.6514 21.1813 34.5 21.5625 34.5Z" fill="var(--fill-0, #D8D8EB)"/>
</g>
</svg>
