<svg preserveAspectRatio="none" width="100%" height="100%" overflow="visible" style="display: block;" viewBox="0 0 40 40" fill="none" xmlns="http://www.w3.org/2000/svg">
<g id="stash:check-circle-solid">
<path id="Vector" d="M20 6.66667C23.5362 6.66667 26.9276 8.07142 29.4281 10.5719C31.9286 13.0724 33.3333 16.4638 33.3333 20C33.3333 23.5362 31.9286 26.9276 29.4281 29.4281C26.9276 31.9286 23.5362 33.3333 20 33.3333C16.4638 33.3333 13.0724 31.9286 10.5719 29.4281C8.07142 26.9276 6.66667 23.5362 6.66667 20C6.66667 16.4638 8.07142 13.0724 10.5719 10.5719C13.0724 8.07142 16.4638 6.66667 20 6.66667ZM26.1783 17.845C26.4819 17.5307 26.6499 17.1097 26.6461 16.6727C26.6423 16.2357 26.467 15.8176 26.158 15.5086C25.849 15.1996 25.431 15.0243 24.994 15.0205C24.557 15.0167 24.136 15.1847 23.8217 15.4883L18.3333 20.9767L16.1783 18.8217C15.864 18.5181 15.443 18.3501 15.006 18.3539C14.569 18.3577 14.151 18.533 13.842 18.842C13.533 19.151 13.3577 19.569 13.3539 20.006C13.3501 20.443 13.5181 20.864 13.8217 21.1783L17.155 24.5117C17.4675 24.8241 17.8914 24.9996 18.3333 24.9996C18.7753 24.9996 19.1991 24.8241 19.5117 24.5117L26.1783 17.845Z" fill="var(--fill-0, #FFFAFA)"/>
</g>
</svg>
