<svg preserveAspectRatio="none" width="100%" height="100%" overflow="visible" style="display: block;" viewBox="0 0 34.9997 32.5" fill="none" xmlns="http://www.w3.org/2000/svg">
<g id="Vector">
<path d="M5 6.875C5 3.07804 8.07804 0 11.875 0C15.672 0 18.75 3.07804 18.75 6.875C18.75 10.672 15.672 13.75 11.875 13.75C8.07804 13.75 5 10.672 5 6.875Z" fill="var(--fill-0, #4E52FB)"/>
<path d="M21.25 10.625C21.25 7.5184 23.7684 5 26.875 5C29.9816 5 32.5 7.5184 32.5 10.625C32.5 13.7316 29.9816 16.25 26.875 16.25C23.7684 16.25 21.25 13.7316 21.25 10.625Z" fill="var(--fill-0, #4E52FB)"/>
<path d="M0 28.125C0 21.5666 5.31662 16.25 11.875 16.25C18.4334 16.25 23.75 21.5666 23.75 28.125V28.1293C23.75 28.1956 23.7494 28.2623 23.7483 28.3282C23.741 28.7591 23.5124 29.1558 23.1432 29.3781C19.8512 31.3602 15.9943 32.5 11.875 32.5C7.75571 32.5 3.89883 31.3602 0.606768 29.3781C0.237605 29.1558 0.00895485 28.7591 0.00171065 28.3282C0.000574589 28.2606 0 28.1929 0 28.125Z" fill="var(--fill-0, #4E52FB)"/>
<path d="M26.2497 28.1302C26.2497 28.2103 26.249 28.2906 26.2477 28.3703C26.2382 28.9347 26.102 29.4796 25.8594 29.9699C26.1954 29.9899 26.5339 30 26.8747 30C29.5342 30 32.0534 29.3839 34.2941 28.2854C34.7057 28.0836 34.9739 27.6726 34.9928 27.2145C34.9974 27.1019 34.9997 26.9887 34.9997 26.875C34.9997 22.3877 31.3621 18.75 26.8747 18.75C25.6307 18.75 24.4519 19.0296 23.3978 19.5294C25.1891 21.9269 26.2497 24.9021 26.2497 28.125V28.1302Z" fill="var(--fill-0, #4E52FB)"/>
</g>
</svg>
