<svg width="36" height="25" viewBox="0 0 36 25" fill="none" xmlns="http://www.w3.org/2000/svg">
<g clip-path="url(#clip0_1_7269)">
<path d="M35.2049 3.89931C34.9984 3.14563 34.5956 2.45853 34.0367 1.90643C33.4777 1.35432 32.782 0.956474 32.0189 0.7525C29.2253 0 17.9817 0 17.9817 0C17.9817 0 6.73765 0.0227777 3.944 0.775278C3.18089 0.979264 2.48521 1.37713 1.92623 1.92926C1.36725 2.4814 0.964464 3.16852 0.757996 3.92222C-0.0870198 8.82472 -0.414817 16.295 0.781199 21.0014C0.987689 21.7551 1.39048 22.4422 1.94946 22.9943C2.50844 23.5464 3.20411 23.9442 3.9672 24.1482C6.76085 24.9007 18.0047 24.9007 18.0047 24.9007C18.0047 24.9007 29.2483 24.9007 32.0419 24.1482C32.805 23.9442 33.5007 23.5464 34.0597 22.9943C34.6187 22.4422 35.0215 21.7551 35.228 21.0014C36.1193 16.0919 36.3939 8.62625 35.2049 3.89931Z" fill="#FF0000"/>
<path d="M14.4033 17.7859L23.7307 12.4501L14.4033 7.11426V17.7859Z" fill="white"/>
</g>
<defs>
<clipPath id="clip0_1_7269">
<rect width="36" height="25" fill="white"/>
</clipPath>
</defs>
</svg>
