<svg width="100" height="100" viewBox="0 0 100 100" fill="none" xmlns="http://www.w3.org/2000/svg">
<g clip-path="url(#clip0_1_3985)">
<path d="M99.8259 8.25021C99.5634 4.16688 96.43 1.06688 92.2717 0.821046C87.68 0.546046 72.8217 0.321046 68.5509 0.321046C76.1842 5.58771 77.2259 15.5044 77.9467 33.9294C78.3675 44.846 77.9884 83.0919 77.955 84.7127L77.7509 95.146L37.6342 55.021V42.4627L69.5342 74.371C69.6175 68.0544 69.7009 59.821 69.7009 52.2919C69.7009 44.9585 69.5925 38.3169 69.3842 34.821C68.1842 14.7419 66.3134 5.33355 55.83 1.64605C52.6217 0.521046 49.6342 0.250213 44.6509 0.183546C40.5342 0.133546 11.8675 0.154379 7.72588 0.379379C3.33422 0.612713 0.375884 3.80855 0.175884 7.91688C-0.024116 11.9877 -0.0907827 87.8085 0.175884 91.9377C0.434217 96.021 3.57172 99.121 7.72588 99.3627C12.3176 99.6419 27.1759 99.6752 31.4509 99.6752C23.8175 94.4085 22.7717 84.496 22.0551 66.0669C21.6384 55.1502 22.0176 16.9002 22.0551 15.2835L22.2509 4.85021L62.3717 44.9752V57.5294L30.4675 25.6335C30.3842 31.9419 30.3009 40.1752 30.3009 47.7085C30.3009 55.0419 30.4092 61.6835 30.6217 65.1752C31.8217 85.2585 33.6884 94.6627 44.1717 98.3502C47.38 99.4794 50.3675 99.7544 55.3509 99.8169C59.4634 99.8669 88.1342 99.8419 92.2717 99.621C96.6717 99.3877 99.6259 96.196 99.8259 92.0752C100.026 88.0085 100.093 12.3794 99.8259 8.25021Z" fill="#1597D3"/>
</g>
<defs>
<clipPath id="clip0_1_3985">
<rect width="100" height="100" fill="white"/>
</clipPath>
</defs>
</svg>
