<svg width="80" height="80" viewBox="0 0 80 80" fill="none" xmlns="http://www.w3.org/2000/svg">
<path d="M57.0881 22.9102C57.4751 23.2972 57.7821 23.7565 57.9916 24.2621C58.201 24.7677 58.3088 25.3096 58.3088 25.8569C58.3088 26.4042 58.201 26.9461 57.9916 27.4517C57.7821 27.9573 57.4751 28.4166 57.0881 28.8036L45.8881 40.0002L57.0881 51.1969C57.475 51.5839 57.782 52.0433 57.9914 52.5488C58.2008 53.0544 58.3086 53.5963 58.3086 54.1436C58.3086 54.6908 58.2008 55.2327 57.9914 55.7383C57.782 56.2439 57.475 56.7033 57.0881 57.0902C56.7011 57.4772 56.2417 57.7841 55.7361 57.9936C55.2305 58.203 54.6886 58.3108 54.1414 58.3108C53.5941 58.3108 53.0522 58.203 52.5467 57.9936C52.0411 57.7841 51.5817 57.4772 51.1947 57.0902L39.9981 45.8902L28.8014 57.0902C28.0199 57.8717 26.9599 58.3108 25.8547 58.3108C24.7495 58.3108 23.6896 57.8717 22.9081 57.0902C22.1265 56.3087 21.6875 55.2488 21.6875 54.1436C21.6875 53.0383 22.1265 51.9784 22.9081 51.1969L34.1081 40.0002L22.9081 28.8036C22.1265 28.0221 21.6875 26.9621 21.6875 25.8569C21.6875 24.7517 22.1265 23.6917 22.9081 22.9102C23.6896 22.1287 24.7495 21.6897 25.8547 21.6897C26.9599 21.6897 28.0199 22.1287 28.8014 22.9102L39.9981 34.1102L51.1947 22.9102C51.5816 22.5232 52.041 22.2162 52.5466 22.0067C53.0522 21.7973 53.5941 21.6895 54.1414 21.6895C54.6887 21.6895 55.2306 21.7973 55.7362 22.0067C56.2417 22.2162 56.7011 22.5232 57.0881 22.9102Z" fill="#FF0000"/>
</svg>
