<svg width="80" height="80" viewBox="0 0 80 80" fill="none" xmlns="http://www.w3.org/2000/svg">
<path d="M58.9671 25.9207C59.2841 26.2227 59.5385 26.5842 59.7157 26.9845C59.893 27.3848 59.9896 27.8161 60.0002 28.2538C60.0107 28.6915 59.9349 29.127 59.7771 29.5354C59.6193 29.9438 59.3826 30.3171 59.0805 30.634L34.4471 56.5007L20.9205 42.3006C20.3105 41.6606 19.9797 40.8044 20.001 39.9205C20.0222 39.0366 20.3937 38.1973 21.0338 37.5873C21.6738 36.9773 22.53 36.6466 23.4139 36.6678C24.2979 36.6891 25.1371 37.0606 25.7471 37.7007L34.4471 46.834L54.2538 26.034C54.5558 25.717 54.9173 25.4626 55.3176 25.2854C55.718 25.1081 56.1493 25.0115 56.587 25.001C57.0247 24.9904 57.4602 25.0662 57.8685 25.224C58.2769 25.3818 58.6502 25.6186 58.9671 25.9207Z" fill="#11F254"/>
</svg>
