<svg width="100" height="100" viewBox="0 0 100 100" fill="none" xmlns="http://www.w3.org/2000/svg">
<path fill-rule="evenodd" clip-rule="evenodd" d="M10.7143 14.2861C7.87268 14.2861 5.14746 15.415 3.13814 17.4243C1.12882 19.4336 0 22.1588 0 25.0004L0 75.0004C0 77.842 1.12882 80.5673 3.13814 82.5766C5.14746 84.5859 7.87268 85.7147 10.7143 85.7147H89.2857C92.1273 85.7147 94.8525 84.5859 96.8619 82.5766C98.8712 80.5673 100 77.842 100 75.0004V25.0004C100 22.1588 98.8712 19.4336 96.8619 17.4243C94.8525 15.415 92.1273 14.2861 89.2857 14.2861H10.7143ZM30.5286 34.8218C26.503 34.8218 22.6422 36.421 19.7957 39.2675C16.9492 42.1141 15.35 45.9748 15.35 50.0004C15.35 54.026 16.9492 57.8868 19.7957 60.7333C22.6422 63.5798 26.503 65.179 30.5286 65.179C34.5542 65.179 38.4149 63.5798 41.2614 60.7333C44.108 57.8868 45.7071 54.026 45.7071 50.0004C45.7071 45.9748 44.108 42.1141 41.2614 39.2675C38.4149 36.421 34.5542 34.8218 30.5286 34.8218ZM57.8643 39.2861C57.8643 36.8218 59.8643 34.8218 62.3286 34.8218H80.1857C81.3697 34.8218 82.5052 35.2922 83.3424 36.1294C84.1797 36.9666 84.65 38.1021 84.65 39.2861C84.65 40.4701 84.1797 41.6056 83.3424 42.4429C82.5052 43.2801 81.3697 43.7504 80.1857 43.7504H62.3286C61.7417 43.7514 61.1604 43.6366 60.618 43.4126C60.0755 43.1887 59.5825 42.86 59.1672 42.4454C58.7519 42.0307 58.4224 41.5383 58.1976 40.9962C57.9729 40.4541 57.8643 39.873 57.8643 39.2861ZM62.3214 56.2504C61.1374 56.2504 60.0019 56.7208 59.1647 57.558C58.3275 58.3952 57.8571 59.5307 57.8571 60.7147C57.8571 61.8987 58.3275 63.0342 59.1647 63.8714C60.0019 64.7087 61.1374 65.179 62.3214 65.179H80.1786C81.3626 65.179 82.4981 64.7087 83.3353 63.8714C84.1725 63.0342 84.6429 61.8987 84.6429 60.7147C84.6429 59.5307 84.1725 58.3952 83.3353 57.558C82.4981 56.7208 81.3626 56.2504 80.1786 56.2504H62.3214Z" fill="#7F31EE"/>
</svg>
