<svg width="36" height="36" viewBox="0 0 36 36" fill="none" xmlns="http://www.w3.org/2000/svg">
<path fill-rule="evenodd" clip-rule="evenodd" d="M9.40344 1.22115C12.1651 0.912578 15.0477 0.642578 17.9997 0.642578C20.9517 0.642578 23.8343 0.912578 26.596 1.22115C28.6951 1.46184 30.6504 2.40753 32.1423 3.90363C33.6342 5.39972 34.5744 7.3577 34.8091 9.45743C35.1049 12.2063 35.3569 15.0683 35.3569 17.9997C35.3569 20.9311 35.1049 23.7931 34.8091 26.542C34.5744 28.6417 33.6342 30.5997 32.1423 32.0958C30.6504 33.5919 28.6951 34.5376 26.596 34.7783C23.8343 35.0869 20.9517 35.3569 17.9997 35.3569C15.0477 35.3569 12.1651 35.0869 9.40344 34.7783C7.30436 34.5376 5.34904 33.5919 3.85715 32.0958C2.36526 30.5997 1.42507 28.6417 1.19029 26.542C0.894578 23.7931 0.642578 20.9311 0.642578 17.9997C0.642578 15.0683 0.894578 12.2063 1.19029 9.45743C1.42507 7.3577 2.36526 5.39972 3.85715 3.90363C5.34904 2.40753 7.30436 1.46184 9.40344 1.22115ZM21.4249 7.41058C21.3361 7.02582 21.1088 6.68721 20.7863 6.45935C20.4638 6.23149 20.0687 6.13032 19.6764 6.17514C19.2841 6.21997 18.922 6.40765 18.6593 6.70239C18.3965 6.99713 18.2514 7.37828 18.2517 7.77315V22.6283C18.2517 23.4176 18.0177 24.1892 17.5791 24.8455C17.1406 25.5018 16.5173 26.0133 15.7881 26.3154C15.0589 26.6174 14.2564 26.6965 13.4823 26.5425C12.7081 26.3885 11.997 26.0084 11.4389 25.4503C10.8808 24.8921 10.5007 24.181 10.3467 23.4069C10.1927 22.6327 10.2717 21.8303 10.5738 21.1011C10.8759 20.3718 11.3874 19.7485 12.0437 19.31C12.7 18.8715 13.4715 18.6374 14.2609 18.6374C14.6871 18.6374 15.0959 18.4681 15.3973 18.1667C15.6987 17.8653 15.868 17.4565 15.868 17.0303C15.868 16.6041 15.6987 16.1953 15.3973 15.8939C15.0959 15.5925 14.6871 15.4232 14.2609 15.4232C12.8358 15.4232 11.4428 15.8457 10.2579 16.6374C9.07302 17.4291 8.14952 18.5544 7.60418 19.871C7.05884 21.1876 6.91615 22.6363 7.19417 24.0339C7.47218 25.4316 8.1584 26.7154 9.16606 27.7231C10.1737 28.7308 11.4575 29.417 12.8552 29.695C14.2529 29.973 15.7016 29.8303 17.0182 29.285C18.3347 28.7396 19.46 27.8161 20.2517 26.6313C21.0434 25.4464 21.466 24.0533 21.466 22.6283V13.654C23.0089 14.9654 24.9991 15.6854 27.334 15.6854C27.7602 15.6854 28.169 15.5161 28.4704 15.2147C28.7718 14.9133 28.9411 14.5045 28.9411 14.0783C28.9411 13.6521 28.7718 13.2433 28.4704 12.9419C28.169 12.6405 27.7602 12.4711 27.334 12.4711C25.6369 12.4711 24.3769 11.9466 23.4486 11.1211C22.5023 10.2777 21.8003 9.02286 21.4249 7.41058Z" fill="#FFFAFA"/>
</svg>
