<svg width="228" height="228" viewBox="0 0 228 228" fill="none" xmlns="http://www.w3.org/2000/svg">
<path d="M147.217 9.49805H71.234C64.9365 9.49805 58.897 11.9997 54.444 16.4527C49.991 20.9057 47.4893 26.9452 47.4893 33.2427V194.706C47.4893 201.004 49.991 207.043 54.444 211.496C58.897 215.949 64.9365 218.451 71.234 218.451H147.217C153.514 218.451 159.554 215.949 164.007 211.496C168.46 207.043 170.962 201.004 170.962 194.706V33.2427C170.962 26.9452 168.46 20.9057 164.007 16.4527C159.554 11.9997 153.514 9.49805 147.217 9.49805ZM109.225 208.953C101.342 208.953 94.9786 202.59 94.9786 194.706C94.9786 186.823 101.342 180.46 109.225 180.46C117.109 180.46 123.472 186.823 123.472 194.706C123.472 202.59 117.109 208.953 109.225 208.953ZM151.966 170.962H66.485V37.9916H151.966V170.962Z" fill="#F0F0F0"/>
</svg>
