<svg preserveAspectRatio="none" width="100%" height="100%" overflow="visible" style="display: block;" viewBox="0 0 29.25 29.25" fill="none" xmlns="http://www.w3.org/2000/svg">
<path id="Vector" fill-rule="evenodd" clip-rule="evenodd" d="M0 14.625C0 6.54784 6.54784 0 14.625 0C22.7022 0 29.25 6.54784 29.25 14.625C29.25 22.7022 22.7022 29.25 14.625 29.25C6.54784 29.25 0 22.7022 0 14.625ZM20.0404 11.9039C20.4016 11.3983 20.2845 10.6957 19.7789 10.3346C19.2733 9.97341 18.5707 10.0905 18.2095 10.5961L13.3564 17.3905L10.9205 14.9545C10.4812 14.5152 9.76884 14.5152 9.32951 14.9545C8.89017 15.3938 8.89017 16.1062 9.32951 16.5455L12.7045 19.9205C12.9383 20.1543 13.2632 20.2734 13.5928 20.2462C13.9224 20.2189 14.2232 20.048 14.4155 19.7789L20.0404 11.9039Z" fill="var(--fill-0, #F0F0F0)"/>
</svg>
