<svg preserveAspectRatio="none" width="100%" height="100%" overflow="visible" style="display: block;" viewBox="0 0 36 18.9812" fill="none" xmlns="http://www.w3.org/2000/svg">
<path id="Vector" d="M28.3545 0.421116L25.755 11.0351L23.1465 0.421116H15.498V4.34062C14.58 0.910116 11.34 0.0491154 8.337 0.00111536C4.68 -0.0483846 0.8445 1.54162 0.7035 6.39411H5.763C5.763 4.92861 6.8835 4.09012 8.145 4.10962C9.693 4.09762 10.407 4.76061 10.4445 5.79561C10.3905 6.69111 9.864 7.31661 8.157 7.31661H6.4545V10.8401H7.9995C8.8755 10.8401 10.098 11.3186 10.146 12.5726C10.206 14.0651 9.168 14.7251 7.8945 14.7371C5.619 14.6576 5.25 12.8996 5.25 11.3921H0C0.0225 12.4076 -0.2265 19.0286 8.0055 18.9806C11.949 19.0181 14.7015 17.3531 15.51 15.0611V18.5741H20.6925V7.12611L23.493 18.5771H28.02L30.8325 7.13812V18.5891H36V0.421116H28.3545ZM15.513 11.0111C14.8695 9.67161 13.962 9.08512 13.449 8.90062C14.52 8.42212 15.084 7.77411 15.513 6.47961V11.0111Z" fill="var(--fill-0, #F0F0F0)"/>
</svg>
