<svg preserveAspectRatio="none" width="100%" height="100%" overflow="visible" style="display: block;" viewBox="0 0 25.5 33" fill="none" xmlns="http://www.w3.org/2000/svg">
<path id="Vector" d="M0 22.5V25.5C0.984914 25.5 1.96018 25.694 2.87013 26.0709C3.78007 26.4478 4.60686 27.0003 5.3033 27.6967C5.99974 28.3931 6.55219 29.2199 6.9291 30.1299C7.30601 31.0398 7.5 32.0151 7.5 33H10.5C10.5 30.2152 9.39375 27.5445 7.42462 25.5754C5.45549 23.6062 2.78477 22.5 0 22.5ZM0 28.5V33H4.5C4.5 31.8065 4.02589 30.6619 3.18198 29.818C2.33807 28.9741 1.19347 28.5 0 28.5ZM0 16.5V19.5C3.58042 19.5 7.0142 20.9223 9.54594 23.4541C12.0777 25.9858 13.5 29.4196 13.5 33H16.5C16.5 23.88 9.12 16.5 0 16.5ZM22.5 0H7.5C6.70435 0 5.94129 0.316071 5.37868 0.87868C4.81607 1.44129 4.5 2.20435 4.5 3V14.055C5.535 14.295 6.54 14.61 7.5 15V6H22.5V25.5H17.955C18.75 27.375 19.215 29.385 19.38 31.5H22.5C23.2956 31.5 24.0587 31.1839 24.6213 30.6213C25.1839 30.0587 25.5 29.2956 25.5 28.5V3C25.5 2.20435 25.1839 1.44129 24.6213 0.87868C24.0587 0.316071 23.2956 0 22.5 0Z" fill="var(--fill-0, #F0F0F0)"/>
</svg>
