<svg preserveAspectRatio="none" width="100%" height="100%" overflow="visible" style="display: block;" viewBox="0 0 24 30" fill="none" xmlns="http://www.w3.org/2000/svg">
<path id="Vector" d="M6 21.276V20.25C6 18.978 6.768 17.8575 7.9305 17.1795C6.93777 16.7577 6.01596 16.1855 5.1975 15.483C3.8415 16.704 3 18.39 3 20.25V21.276C2.12564 21.5851 1.36814 22.1568 0.831131 22.913C0.294126 23.6691 0.00384445 24.5726 0 25.5C0 27.981 2.019 30 4.5 30C6.981 30 9 27.981 9 25.5C8.99616 24.5726 8.70587 23.6691 8.16887 22.913C7.63186 22.1568 6.87436 21.5851 6 21.276ZM4.5 27C4.11378 26.9827 3.74911 26.8171 3.48191 26.5377C3.21472 26.2583 3.0656 25.8866 3.0656 25.5C3.0656 25.1134 3.21472 24.7417 3.48191 24.4623C3.74911 24.1829 4.11378 24.0173 4.5 24C4.88622 24.0173 5.25089 24.1829 5.51809 24.4623C5.78528 24.7417 5.9344 25.1134 5.9344 25.5C5.9344 25.8866 5.78528 26.2583 5.51809 26.5377C5.25089 26.8171 4.88622 26.9827 4.5 27ZM18 8.7225V9.249C18 10.7265 17.1975 12.027 15.9825 12.789C16.9728 13.1963 17.895 13.7528 18.717 14.439C20.121 13.122 21 11.286 21 9.2505V8.724C21.8744 8.41488 22.6319 7.84315 23.1689 7.08705C23.7059 6.33094 23.9962 5.42739 24 4.5C24 2.019 21.981 0 19.5 0C17.019 0 15 2.019 15 4.5C15 6.453 16.2585 8.1015 18 8.7225ZM19.5 3C19.7971 2.9997 20.0876 3.08755 20.3348 3.25242C20.5819 3.4173 20.7746 3.65178 20.8884 3.92621C21.0022 4.20063 21.0321 4.50266 20.9742 4.79406C20.9163 5.08546 20.7733 5.35314 20.5632 5.56322C20.3531 5.7733 20.0855 5.91633 19.7941 5.97422C19.5027 6.03211 19.2006 6.00225 18.9262 5.88842C18.6518 5.77459 18.4173 5.5819 18.2524 5.33475C18.0875 5.0876 17.9997 4.7971 18 4.5C18 3.6735 18.672 3 19.5 3ZM20.9025 21.246C20.2875 16.8765 16.536 13.5 12 13.5C10.6152 13.4985 9.2735 13.0186 8.20197 12.1414C7.13044 11.2642 6.39495 10.0437 6.12 8.6865C6.96595 8.36008 7.69356 7.78571 8.20747 7.03866C8.72138 6.29161 8.99762 5.40674 9 4.5C9 2.019 6.981 0 4.5 0C2.019 0 0 2.019 0 4.5C0 6.489 1.305 8.16 3.0975 8.754C3.7125 13.1235 7.464 16.5 12 16.5C13.3848 16.5015 14.7265 16.9814 15.798 17.8586C16.8696 18.7358 17.6051 19.9563 17.88 21.3135C17.0341 21.6399 16.3064 22.2143 15.7925 22.9613C15.2786 23.7084 15.0024 24.5933 15 25.5C15 27.981 17.019 30 19.5 30C21.981 30 24 27.981 24 25.5C24 23.511 22.695 21.84 20.9025 21.246ZM4.5 3C4.7971 2.9997 5.0876 3.08755 5.33475 3.25242C5.5819 3.4173 5.77459 3.65178 5.88842 3.92621C6.00225 4.20063 6.03211 4.50266 5.97422 4.79406C5.91633 5.08546 5.7733 5.35314 5.56322 5.56322C5.35314 5.7733 5.08546 5.91633 4.79406 5.97422C4.50266 6.03211 4.20063 6.00225 3.92621 5.88842C3.65178 5.77459 3.4173 5.5819 3.25242 5.33475C3.08755 5.0876 2.9997 4.7971 3 4.5C3 3.6735 3.672 3 4.5 3ZM19.5 27C19.1138 26.9827 18.7491 26.8171 18.4819 26.5377C18.2147 26.2583 18.0656 25.8866 18.0656 25.5C18.0656 25.1134 18.2147 24.7417 18.4819 24.4623C18.7491 24.1829 19.1138 24.0173 19.5 24C19.8862 24.0173 20.2509 24.1829 20.5181 24.4623C20.7853 24.7417 20.9344 25.1134 20.9344 25.5C20.9344 25.8866 20.7853 26.2583 20.5181 26.5377C20.2509 26.8171 19.8862 26.9827 19.5 27Z" fill="var(--fill-0, #F0F0F0)"/>
</svg>
