<svg preserveAspectRatio="none" width="100%" height="100%" overflow="visible" style="display: block;" viewBox="0 0 30 30" fill="none" xmlns="http://www.w3.org/2000/svg">
<path id="Vector" d="M19.5 0C19.8978 0 20.2794 0.158035 20.5607 0.43934C20.842 0.720644 21 1.10218 21 1.5V3H22.5C23.6935 3 24.8381 3.47411 25.682 4.31802C26.5259 5.16193 27 6.30653 27 7.5V9H28.5C28.8978 9 29.2794 9.15804 29.5607 9.43934C29.842 9.72064 30 10.1022 30 10.5C30 10.8978 29.842 11.2794 29.5607 11.5607C29.2794 11.842 28.8978 12 28.5 12H27V18H28.5C28.8978 18 29.2794 18.158 29.5607 18.4393C29.842 18.7206 30 19.1022 30 19.5C30 19.8978 29.842 20.2794 29.5607 20.5607C29.2794 20.842 28.8978 21 28.5 21H27V22.5C27 23.6935 26.5259 24.8381 25.682 25.682C24.8381 26.5259 23.6935 27 22.5 27H21V28.5C21 28.8978 20.842 29.2794 20.5607 29.5607C20.2794 29.842 19.8978 30 19.5 30C19.1022 30 18.7206 29.842 18.4393 29.5607C18.158 29.2794 18 28.8978 18 28.5V27H12V28.5C12 28.8978 11.842 29.2794 11.5607 29.5607C11.2794 29.842 10.8978 30 10.5 30C10.1022 30 9.72064 29.842 9.43934 29.5607C9.15804 29.2794 9 28.8978 9 28.5V27H7.5C6.30653 27 5.16193 26.5259 4.31802 25.682C3.47411 24.8381 3 23.6935 3 22.5V21H1.5C1.10218 21 0.720644 20.842 0.43934 20.5607C0.158035 20.2794 0 19.8978 0 19.5C0 19.1022 0.158035 18.7206 0.43934 18.4393C0.720644 18.158 1.10218 18 1.5 18H3V12H1.5C1.10218 12 0.720644 11.842 0.43934 11.5607C0.158035 11.2794 0 10.8978 0 10.5C0 10.1022 0.158035 9.72064 0.43934 9.43934C0.720644 9.15804 1.10218 9 1.5 9H3V7.5C3 6.30653 3.47411 5.16193 4.31802 4.31802C5.16193 3.47411 6.30653 3 7.5 3H9V1.5C9 1.10218 9.15804 0.720644 9.43934 0.43934C9.72064 0.158035 10.1022 0 10.5 0C10.8978 0 11.2794 0.158035 11.5607 0.43934C11.842 0.720644 12 1.10218 12 1.5V3H18V1.5C18 1.10218 18.158 0.720644 18.4393 0.43934C18.7206 0.158035 19.1022 0 19.5 0ZM18 9H12C11.2044 9 10.4413 9.31607 9.87868 9.87868C9.31607 10.4413 9 11.2044 9 12V18C9 18.7956 9.31607 19.5587 9.87868 20.1213C10.4413 20.6839 11.2044 21 12 21H18C18.7956 21 19.5587 20.6839 20.1213 20.1213C20.6839 19.5587 21 18.7956 21 18V12C21 11.2044 20.6839 10.4413 20.1213 9.87868C19.5587 9.31607 18.7956 9 18 9ZM18 12V18H12V12H18Z" fill="var(--fill-0, #F0F0F0)"/>
</svg>
