<svg preserveAspectRatio="none" width="100%" height="100%" overflow="visible" style="display: block;" viewBox="0 0 35.2523 34.8739" fill="none" xmlns="http://www.w3.org/2000/svg">
<path id="Vector" fill-rule="evenodd" clip-rule="evenodd" d="M15.829 0.43918C16.1103 0.157973 16.4918 0 16.8895 0C17.2873 0 17.6687 0.157973 17.95 0.43918L20.149 2.63818C20.4303 2.91954 20.5883 3.30111 20.5882 3.69894C20.5881 4.09678 20.43 4.47829 20.1487 4.75955C19.8673 5.04082 19.4857 5.19879 19.0879 5.19872C18.6901 5.19865 18.3086 5.04054 18.0273 4.75918L15.8283 2.56018C15.5471 2.27889 15.3891 1.89743 15.3891 1.49968C15.3891 1.10193 15.5478 0.720471 15.829 0.43918ZM17.6208 34.8732C14.5188 34.8732 12.2005 34.7554 10.6615 34.6384C9.76455 34.576 8.92036 34.1915 8.28456 33.5557C7.64876 32.9199 7.26421 32.0757 7.20179 31.1787C7.08479 29.6397 6.96704 27.3214 6.96704 24.2187C6.96704 21.1159 7.08479 18.7977 7.20179 17.2587C7.26442 16.3616 7.64926 15.5174 8.28536 14.8817C8.92145 14.246 9.76591 13.8617 10.663 13.7997C12.202 13.6827 14.5203 13.5649 17.6223 13.5649C20.7243 13.5649 23.0425 13.6827 24.5815 13.7997C25.4785 13.8621 26.3227 14.2466 26.9585 14.8824C27.5943 15.5182 27.9789 16.3624 28.0413 17.2594C28.1583 18.7984 28.276 21.1167 28.276 24.2194C28.276 27.3222 28.1583 29.6404 28.0413 31.1794C27.9789 32.0764 27.5943 32.9206 26.9585 33.5564C26.3227 34.1922 25.4785 34.5768 24.5815 34.6392C23.0425 34.7562 20.7243 34.8739 17.6223 34.8739M23.5203 28.8049C23.5203 29.2028 23.3623 29.5843 23.0809 29.8656C22.7996 30.1469 22.4181 30.3049 22.0203 30.3049H17.6223C17.2245 30.3049 16.8429 30.1469 16.5616 29.8656C16.2803 29.5843 16.1223 29.2028 16.1223 28.8049C16.1223 28.4071 16.2803 28.0256 16.5616 27.7443C16.8429 27.463 17.2245 27.3049 17.6223 27.3049H22.0203C22.4181 27.3049 22.7996 27.463 23.0809 27.7443C23.3623 28.0256 23.5203 28.4071 23.5203 28.8049ZM22.0203 25.7224C22.4181 25.7224 22.7996 25.5644 23.0809 25.2831C23.3623 25.0018 23.5203 24.6203 23.5203 24.2224C23.5203 23.8246 23.3623 23.4431 23.0809 23.1618C22.7996 22.8805 22.4181 22.7224 22.0203 22.7224H19.0878C18.69 22.7224 18.3084 22.8805 18.0271 23.1618C17.7458 23.4431 17.5878 23.8246 17.5878 24.2224C17.5878 24.6203 17.7458 25.0018 18.0271 25.2831C18.3084 25.5644 18.69 25.7224 19.0878 25.7224H22.0203ZM27.4803 2.63743C27.341 2.49806 27.1757 2.38749 26.9937 2.31203C26.8117 2.23657 26.6166 2.1977 26.4196 2.19763C26.2225 2.19756 26.0274 2.23629 25.8454 2.31163C25.6633 2.38696 25.4979 2.49741 25.3585 2.63668C25.2192 2.77595 25.1086 2.9413 25.0331 3.1233C24.9577 3.3053 24.9188 3.50038 24.9187 3.6974C24.9187 3.89442 24.9574 4.08953 25.0327 4.27158C25.1081 4.45363 25.2185 4.61906 25.3578 4.75843L27.5568 6.95743C27.6961 7.09675 27.8614 7.20727 28.0434 7.28268C28.2254 7.3581 28.4204 7.39693 28.6174 7.39697C28.8144 7.397 29.0095 7.35824 29.1915 7.28289C29.3735 7.20754 29.5388 7.09707 29.6782 6.95781C29.8175 6.81854 29.928 6.6532 30.0034 6.47122C30.0788 6.28924 30.1177 6.09418 30.1177 5.8972C30.1177 5.70021 30.079 5.50514 30.0036 5.32313C29.9283 5.14113 29.8178 4.97575 29.6785 4.83643L27.4803 2.63743ZM6.30029 2.63743C6.43959 2.49808 6.60497 2.38753 6.787 2.31211C6.96903 2.23669 7.16413 2.19788 7.36117 2.19788C7.5582 2.19788 7.7533 2.23669 7.93533 2.31211C8.11736 2.38753 8.28274 2.49808 8.42204 2.63743L10.621 4.83643C10.9023 5.11779 11.0603 5.49936 11.0602 5.8972C11.0601 6.29503 10.902 6.67654 10.6207 6.95781C10.3393 7.23907 9.95773 7.39704 9.5599 7.39697C9.16207 7.3969 8.78055 7.23879 8.49929 6.95743L6.29954 4.75768C6.16019 4.61838 6.04964 4.453 5.97422 4.27097C5.8988 4.08894 5.85999 3.89384 5.85999 3.6968C5.85999 3.49977 5.8988 3.30467 5.97422 3.12264C6.04964 2.94061 6.16019 2.77523 6.29954 2.63593M17.623 7.32868C11.23 7.32868 6.93329 8.85868 4.19279 10.4682C2.82779 11.2692 1.86554 12.0822 1.23029 12.7144C0.91379 13.0302 0.679041 13.3002 0.517791 13.5019C0.43266 13.6071 0.351113 13.7152 0.273291 13.8259L0.255291 13.8529L0.247791 13.8634L0.244791 13.8679L0.244041 13.8702C0.244041 13.8702 0.242541 13.8717 1.47254 14.6772L0.242541 13.8717C0.0256267 14.2053 -0.0498905 14.6113 0.0326021 15.0006C0.115095 15.3899 0.34884 15.7304 0.682416 15.9473C1.01599 16.1642 1.42207 16.2397 1.81133 16.1572C2.20058 16.0748 2.54113 15.841 2.75804 15.5074C2.77504 15.4839 2.80754 15.4419 2.85554 15.3814C2.95154 15.2614 3.11279 15.0739 3.34829 14.8399C3.81704 14.3727 4.58204 13.7187 5.71304 13.0549C7.96304 11.7319 11.7303 10.3287 17.623 10.3287C23.5158 10.3287 27.2823 11.7319 29.533 13.0542C30.664 13.7187 31.4283 14.3727 31.8978 14.8392C32.0717 15.0109 32.2362 15.1919 32.3905 15.3814C32.4385 15.4414 32.471 15.4834 32.488 15.5074L32.5008 15.5262C32.6094 15.6905 32.7494 15.8318 32.9126 15.9421C33.0759 16.0523 33.2592 16.1294 33.4523 16.1687C33.6453 16.2081 33.8442 16.2091 34.0376 16.1716C34.231 16.1341 34.4151 16.0589 34.5794 15.9503C34.7437 15.8417 34.8851 15.7017 34.9953 15.5385C35.1056 15.3752 35.1826 15.1919 35.222 14.9988C35.2614 14.8058 35.2623 14.6069 35.2249 14.4135C35.1874 14.2201 35.1122 14.036 35.0035 13.8717L33.748 14.6937C35.0035 13.8717 35.002 13.8702 35.002 13.8702L35.0005 13.8679L34.9975 13.8634L34.99 13.8529L34.972 13.8259L34.9165 13.7472C34.8559 13.6636 34.7931 13.5815 34.7283 13.5012C34.505 13.2259 34.2669 12.963 34.015 12.7137C33.3805 12.0822 32.4175 11.2692 31.0525 10.4682C28.3128 8.85793 24.016 7.32868 17.623 7.32868Z" fill="var(--fill-0, #F0F0F0)"/>
</svg>
